<svg xmlns="http://www.w3.org/2000/svg" viewBox="0 0 337.02 296.41"><defs><style>.cls-1{fill:#5793ce;}.cls-2{fill:#396caa;}.cls-3,.cls-8{fill:#d4ecff;}.cls-4{fill:#fff;}.cls-5{fill:#efefef;}.cls-6{fill:#173d7a;}.cls-7{fill:#fafdff;}.cls-8{opacity:0.4;}.cls-9{fill:#274f89;}.cls-10{fill:#ff2c9c;}.cls-11{fill:#d3008d;}.cls-12{fill:#ffc2b0;}</style></defs><g id="katman_2" data-name="katman 2"><g id="_ÎÓÈ_1" data-name="—ÎÓÈ_1"><path class="cls-1" d="M220.76,92.52a.69.69,0,0,1-.7-.69V63.37a.7.7,0,1,1,1.39,0V91.83A.69.69,0,0,1,220.76,92.52Z"/><rect class="cls-1" x="218.28" y="61.58" width="4.94" height="10.67"/><path class="cls-1" d="M222.5,73.26a3.9,3.9,0,0,1-3.49,0,1.06,1.06,0,0,1,0-2,3.84,3.84,0,0,1,3.49,0A1.06,1.06,0,0,1,222.5,73.26Z"/><rect class="cls-1" x="216.75" y="46.71" width="8.01" height="16.73"/><path class="cls-2" d="M218.28,63.33v3.61a6.35,6.35,0,0,0,4.95,0V63.33A6.44,6.44,0,0,0,218.28,63.33Z"/><path class="cls-1" d="M223.59,65.08a6.29,6.29,0,0,1-5.67,0c-1.56-.91-1.56-2.37,0-3.27a6.23,6.23,0,0,1,5.67,0C225.15,62.71,225.15,64.17,223.59,65.08Z"/><path class="cls-1" d="M248.51,108.13a.69.69,0,0,1-.69-.69V79a.69.69,0,0,1,1.38,0v28.46A.69.69,0,0,1,248.51,108.13Z"/><rect class="cls-1" x="246.04" y="77.19" width="4.94" height="10.67"/><path class="cls-1" d="M250.26,88.87a3.86,3.86,0,0,1-3.5,0,1.07,1.07,0,0,1,0-2,3.92,3.92,0,0,1,3.5,0A1.07,1.07,0,0,1,250.26,88.87Z"/><rect class="cls-1" x="244.5" y="62.32" width="8.01" height="16.73"/><path class="cls-2" d="M246,79v3.61a6.41,6.41,0,0,0,4.94,0V79A6.41,6.41,0,0,0,246,79Z"/><path class="cls-1" d="M251.34,80.69a6.21,6.21,0,0,1-5.66,0c-1.57-.9-1.57-2.37,0-3.27a6.27,6.27,0,0,1,5.66,0C252.91,78.32,252.91,79.79,251.34,80.69Z"/><polygon class="cls-1" points="275.49 90.09 286.23 83.76 276 70.99 273.31 75.39 275.49 90.09"/><path class="cls-1" d="M197.48,20l17.15-9.87S214,20,214,20s-9.84,3-9.84,3Z"/><path class="cls-1" d="M278.47,58a10.77,10.77,0,0,0-3.71-1.37c-1.73-9.09-8.05-18.74-15.58-23.09a15.29,15.29,0,0,0-6.38-2.16c-1-11-8.69-23.52-18-28.89C230-.34,225.55-.67,222.3,1.05h0l-.16.09a2,2,0,0,1-.25.14l-10.1,6,3.35,2.65c-3,1.32-4.92,4.7-4.92,9.7,0,9.22,6.48,20.43,14.46,25l53.79,38.41c6,3.46,10.86.66,10.86-6.27S284.47,61.44,278.47,58Z"/><path class="cls-1" d="M210.72,15.54,233.93,2c-4.51-2.35-8.58-2.54-11.63-.93h0l-.16.09a2,2,0,0,1-.25.14l-10.1,6,3.35,2.65A8.11,8.11,0,0,0,210.72,15.54Z"/><path class="cls-1" d="M253.57,55.42l16.93-9.93a32.78,32.78,0,0,0-11.32-12c-.59-.34-1.17-.63-1.74-.89L235.91,45.22Z"/><path class="cls-3" d="M216.56,8.35l7.54,4.36,13.82-8.14a27.83,27.83,0,0,0-3.11-2.1,19.4,19.4,0,0,0-4.82-2Z"/><path class="cls-3" d="M268.64,42.56l-13.52,8,4.7,5.24,12.27-7.25A39.78,39.78,0,0,0,268.64,42.56Z"/><path class="cls-3" d="M267.86,64.23a10.85,10.85,0,0,0-3.71-1.37c-1.73-9.09-8-18.74-15.59-23.09a15.24,15.24,0,0,0-6.38-2.16c-1-11-8.68-23.52-18-28.89-10-5.77-18.11-1.09-18.11,10.45,0,.39,0,.79,0,1.19-7.31-3.39-13,.43-13,9.09,0,9.22,6.47,20.43,14.46,25l60.3,34.81c6,3.46,10.85.66,10.85-6.27S273.85,67.69,267.86,64.23Z"/><path class="cls-4" d="M206.12,20.36c0-.4,0-.8,0-1.19v-.05c-4-1.57-7.51-.88-9.69,1.64C198.77,18.81,202.21,18.54,206.12,20.36Z"/><path class="cls-4" d="M268.74,63.37A10.77,10.77,0,0,0,265,62c-1.73-9.09-8-18.74-15.59-23.09a15.2,15.2,0,0,0-6.37-2.16c-1-11-8.69-23.52-18-28.89-6.23-3.6-11.72-3.13-15,.52,3.32-2.84,8.4-3,14.1.34,9.3,5.37,17,17.88,18,28.89a15.24,15.24,0,0,1,6.38,2.16c7.54,4.35,13.86,14,15.59,23.09a10.85,10.85,0,0,1,3.71,1.37c6,3.46,10.85,11.88,10.85,18.8A9,9,0,0,1,277,88.81c1.63-1.25,2.62-3.52,2.62-6.64C279.6,75.25,274.74,66.83,268.74,63.37Z"/><path class="cls-2" d="M204.85,23.11l4.53,2.1-.23-5c0-.35,0-.7,0-1,0-4.45,1.34-7.68,3.78-9.09s5.92-1,9.77,1.27c8.3,4.79,15.54,16.45,16.48,26.55l.24,2.54,2.55.2a12.25,12.25,0,0,1,5.1,1.76c6.59,3.8,12.53,12.65,14.12,21l.4,2.1,2.11.33a7.65,7.65,0,0,1,2.66,1c5.07,2.92,9.34,10.33,9.34,16.17,0,2.19-.6,3.8-1.66,4.41s-2.75.33-4.65-.76l-60.3-34.82c-7-4-12.94-14.31-12.94-22.41,0-3.18.94-5.6,2.57-6.65a4.43,4.43,0,0,1,2.41-.64A9.09,9.09,0,0,1,204.85,23.11Z"/><polygon class="cls-1" points="234.94 60.9 236.54 60.1 234.97 58.91 234.94 60.9"/><polygon class="cls-1" points="230.17 39.41 231.71 38.63 231.74 39.44 230.17 39.41"/><polygon class="cls-1" points="239.48 55.88 241.09 55.07 237.99 52.12 239.48 55.88"/><path class="cls-1" d="M236.07,60.05l-7.53-4.44a1.6,1.6,0,0,1-.69-1.26l0-8.72,8.92,5.25,0,8.72C236.76,60.07,236.45,60.28,236.07,60.05Z"/><path class="cls-1" d="M231.7,38.64l-8.14,5.23c-.34.23-.07,1.05.46,1.36l8.31,4.9,8.3,4.89c.53.31.81-.19.47-.82L233,39.42C232.67,38.78,232.05,38.41,231.7,38.64Z"/><path class="cls-3" d="M234.46,60.86l-7.54-4.43a1.62,1.62,0,0,1-.69-1.27l0-8.72,8.91,5.25,0,8.72C235.15,60.89,234.84,61.09,234.46,60.86Z"/><path class="cls-3" d="M230.08,39.45,222,44.69c-.35.22-.07,1.05.45,1.36l8.31,4.89L239,55.83c.52.31.81-.19.46-.81l-8.07-14.79C231.06,39.6,230.43,39.23,230.08,39.45Z"/><path class="cls-3" d="M220,70.4c0,.49-.35.69-.77.44a1.68,1.68,0,0,1-.77-1.33c0-.49.34-.69.77-.45A1.74,1.74,0,0,1,220,70.4Z"/><path class="cls-3" d="M247.82,86.24c0,.49-.35.69-.77.44a1.68,1.68,0,0,1-.77-1.33c0-.49.34-.69.77-.44A1.7,1.7,0,0,1,247.82,86.24Z"/><path class="cls-5" d="M30.41,207.32l-17.33-10c-7.23-4.17-7.23-10.95,0-15.12l15.76-9.1c3.23-1.87,3.23-4.9,0-6.77l-13.75-7.94c-7.23-4.17-7.23-11,0-15.12l17.24-10c7.22-4.17,19-4.17,26.19,0l11.11,6.39-7.24,4.18-11.11-6.39a13,13,0,0,0-11.71,0l-17.24,10c-3.23,1.86-3.23,4.9,0,6.76l13.75,7.94c7.22,4.17,7.22,11,0,15.13l-15.76,9.1c-3.23,1.86-3.23,4.9,0,6.76l17.33,10Z"/><path class="cls-1" d="M7.86,181.78l-.2-.37v1.71h0c-.07,2.79,1.73,5.59,5.41,7.72l17.33,10,7.24-4.18-17.33-10a5.24,5.24,0,0,1-2.06-2c-3.87-.27-6.87-2.29-9.64-4.78A7,7,0,0,0,7.86,181.78Z"/><path class="cls-6" d="M58.52,126.82c-7.22-4.17-19-4.17-26.19,0l-17.24,10a11.61,11.61,0,0,0-4.5,4.25c2.84,2.61,5.53,5.5,9.89,5.06-1.17-1.72-.55-3.75,1.85-5.13l17.24-10a13,13,0,0,1,11.71,0l11.11,6.39,7.24-4.18Z"/><path class="cls-1" d="M38.9,157.76a13.89,13.89,0,0,0-2.82-2.1l-13.75-7.94a5.56,5.56,0,0,1-1.85-1.63c-4.36.44-7-2.45-9.89-5.06a7.54,7.54,0,0,0-.69,1.68l-.23-.27v1.86h0c0,2.75,1.79,5.51,5.42,7.6l13.75,7.94c2.11,1.22,2.83,2.94,2.18,4.51C33.88,163.62,36.12,160.11,38.9,157.76Z"/><path class="cls-6" d="M41.27,161.65a8.4,8.4,0,0,0-2.37-3.89c-2.78,2.35-5,5.86-7.88,6.59a4.91,4.91,0,0,1-2.18,2.25l-15.76,9.1a11.75,11.75,0,0,0-4.46,4.2c2.77,2.49,5.77,4.51,9.64,4.78-.87-1.64-.19-3.5,2.06-4.8l15.76-9.1c3.58-2.06,5.38-4.77,5.41-7.48h0v-1.91Z"/><path class="cls-4" d="M15.09,150l13.75,7.94a4.34,4.34,0,0,1,2.39,3c.19-1.35-.61-2.73-2.39-3.76l-13.75-7.94c-3.45-2-5.23-4.57-5.39-7.18C9.52,144.9,11.3,147.8,15.09,150Z"/><path class="cls-4" d="M30.41,198.17l-17.33-10c-3.45-2-5.23-4.57-5.39-7.18-.18,2.86,1.6,5.76,5.39,7.95l17.33,10,7.24-4.18-.66-.39Z"/><path class="cls-4" d="M62.39,134.7l-11.11-6.39a12.92,12.92,0,0,0-11.71,0l-17.24,9.95c-1.79,1-2.58,2.42-2.39,3.77a4.35,4.35,0,0,1,2.39-3l17.24-9.95a13,13,0,0,1,11.71,0l11.11,6.39,7.24-4.18L69,130.9Z"/><path class="cls-4" d="M36.08,168.09l-15.76,9.1c-1.79,1-2.58,2.42-2.39,3.77a4.33,4.33,0,0,1,2.39-3l15.76-9.1c3.78-2.18,5.56-5.08,5.38-8C41.3,163.52,39.52,166.1,36.08,168.09Z"/><path class="cls-3" d="M30.41,198.94l-17.33-10c-7.23-4.17-7.23-11,0-15.13l15.76-9.1c3.23-1.86,3.23-4.9,0-6.76L15.09,150c-7.23-4.17-7.23-11,0-15.13l17.24-9.95c7.22-4.17,19-4.17,26.19,0l11.11,6.39-7.24,4.18-11.11-6.39a13,13,0,0,0-11.71,0L22.33,139c-3.23,1.87-3.23,4.9,0,6.77l13.75,7.94c7.22,4.17,7.22,10.95,0,15.12L20.32,178c-3.23,1.87-3.23,4.9,0,6.77l17.33,10Z"/><path class="cls-1" d="M39.11,193.33h0a1.13,1.13,0,0,0-1.24.06l-8,4.61a3.68,3.68,0,0,0-1.67,2.88,1.19,1.19,0,0,0,.43,1l8.56,5,10.33-8.68Z"/><path class="cls-1" d="M46.34,198.34l-8,4.61a3.68,3.68,0,0,0-1.67,2.88c0,1.06.75,1.49,1.67,1l8-4.61A3.7,3.7,0,0,0,48,199.3C48,198.24,47.25,197.81,46.34,198.34Z"/><path class="cls-1" d="M61.4,123.69h0a1.13,1.13,0,0,0-1.24.06l-8,4.61a3.67,3.67,0,0,0-1.66,2.88,1.19,1.19,0,0,0,.43,1l8.55,5,10.33-8.68Z"/><path class="cls-5" d="M99.79,186.77,58.33,163.13c-1.51-.88-1.32-2.41.43-3.42l23.85-13.77a6.55,6.55,0,0,1,5.91-.24L130,169.33c1.52.88,1.33,2.41-.43,3.42L105.7,186.52A6.58,6.58,0,0,1,99.79,186.77Z"/><path class="cls-2" d="M133.68,161.38h0V64.6L95.2,54.53l-7.09-4.09a7.05,7.05,0,0,0-6.34.26l-6.61,3.82H54.64l6.07,93.42a1.85,1.85,0,0,0,1.09,1.7l38.4,29a7.05,7.05,0,0,0,6.34-.26l25.59-14.77C133.21,162.94,133.74,162.13,133.68,161.38Z"/><path class="cls-3" d="M85.17,49.81a7.38,7.38,0,0,0-3.4.89l-6.61,3.82H54.64v97a1.83,1.83,0,0,0,1.09,1.7L100.2,178.6a5.7,5.7,0,0,0,2.94.63l.46-97.64Z"/><path class="cls-1" d="M100.61,178.8a7.26,7.26,0,0,0,5.07-.05V80.43h-5.07Z"/><path class="cls-3" d="M100.2,81.6,55.73,56.24c-1.63-.94-1.43-2.58.45-3.66L81.77,37.8a7.05,7.05,0,0,1,6.34-.26L132.59,62.9c1.62.94,1.42,2.58-.46,3.66L106.54,81.34A7.05,7.05,0,0,1,100.2,81.6Z"/><path class="cls-7" d="M132.13,64.76,106.54,79.54a7.05,7.05,0,0,1-6.34.26L55.73,54.44a2.44,2.44,0,0,1-.82-.72,1.71,1.71,0,0,0,.82,2.52L100.2,81.6a7.05,7.05,0,0,0,6.34-.26l25.59-14.78c1.46-.84,1.9-2,1.27-2.94A3.59,3.59,0,0,1,132.13,64.76Z"/><path class="cls-6" d="M101.46,71.32,71.85,54.16c-.76-.44-.67-1.21.21-1.72l12-6.91a3.29,3.29,0,0,1,3-.12l29.61,17.16c.76.44.67,1.21-.21,1.71l-12,6.92A3.27,3.27,0,0,1,101.46,71.32Z"/><path class="cls-3" d="M85.47,54.93l-1.71-1c-.11-.06-.1-.17,0-.24l1.66-1a.46.46,0,0,1,.41,0l1.72,1c.1.06.09.17,0,.24l-1.66.95A.46.46,0,0,1,85.47,54.93Z"/><path class="cls-3" d="M91.2,58.22l-1.71-1c-.11-.06-.09-.16,0-.23l1.65-1a.46.46,0,0,1,.41,0l1.72,1c.11.07.09.17,0,.24l-1.66,1A.43.43,0,0,1,91.2,58.22Z"/><path class="cls-3" d="M96.93,61.52l-1.71-1c-.11-.06-.09-.17,0-.24l1.66-.95a.46.46,0,0,1,.41,0l1.71,1c.11.06.09.17,0,.24l-1.65,1A.48.48,0,0,1,96.93,61.52Z"/><path class="cls-3" d="M102.67,64.82l-1.72-1c-.1-.06-.09-.17,0-.24l1.66-1a.43.43,0,0,1,.41,0l1.71,1c.11.06.1.16,0,.23l-1.65,1A.46.46,0,0,1,102.67,64.82Z"/><path class="cls-1" d="M71.85,54.16l0,0a1.13,1.13,0,0,1,.18-.12l12-6.92A3.32,3.32,0,0,1,87,47l29.58,17.14c.7-.5.73-1.18,0-1.59L87,45.41a3.29,3.29,0,0,0-3,.12l-12,6.91C71.18,53,71.09,53.72,71.85,54.16Z"/><path class="cls-6" d="M111.54,100.77l16.83-9.64a4.08,4.08,0,0,0,1.72-3.27v-6c0-1.27-.77-1.85-1.72-1.3l-16.83,9.64a4.1,4.1,0,0,0-1.72,3.28v6C109.82,100.74,110.59,101.32,111.54,100.77Z"/><path class="cls-4" d="M129.21,80.36a1.69,1.69,0,0,1,.43,1.25v6a4.12,4.12,0,0,1-1.72,3.28l-16.83,9.64a1.3,1.3,0,0,1-.84.18,1,1,0,0,0,1.29,0l16.83-9.64a4.08,4.08,0,0,0,1.72-3.27v-6C130.09,81,129.73,80.45,129.21,80.36Z"/><path class="cls-2" d="M116.6,94.23l1.55-.89a.91.91,0,0,0,.37-.71V91c0-.28-.17-.4-.37-.29l-1.55.9a.91.91,0,0,0-.37.71V94C116.23,94.23,116.4,94.35,116.6,94.23Z"/><path class="cls-4" d="M121.77,91.25l1.54-.89a.88.88,0,0,0,.37-.71V88c0-.28-.16-.41-.37-.29l-1.54.9a.86.86,0,0,0-.38.71V91C121.39,91.24,121.56,91.37,121.77,91.25Z"/><path class="cls-6" d="M111.54,144.27l16.83-9.63a4.12,4.12,0,0,0,1.72-3.28v-6c0-1.26-.77-1.85-1.72-1.3l-16.83,9.64a4.1,4.1,0,0,0-1.72,3.28v6C109.82,144.24,110.59,144.82,111.54,144.27Z"/><path class="cls-4" d="M129.21,123.86a1.71,1.71,0,0,1,.43,1.25v6a4.1,4.1,0,0,1-1.72,3.28l-16.83,9.64a1.3,1.3,0,0,1-.84.18,1,1,0,0,0,1.29,0l16.83-9.63a4.12,4.12,0,0,0,1.72-3.28v-6C130.09,124.48,129.73,124,129.21,123.86Z"/><path class="cls-2" d="M116.6,137.73l1.55-.89a.91.91,0,0,0,.37-.71v-1.65c0-.28-.17-.4-.37-.28l-1.55.89a.91.91,0,0,0-.37.71v1.65C116.23,137.73,116.4,137.85,116.6,137.73Z"/><path class="cls-4" d="M121.77,134.75l1.54-.89a.88.88,0,0,0,.37-.71V131.5c0-.28-.16-.4-.37-.28l-1.54.89a.89.89,0,0,0-.38.71v1.65C121.39,134.75,121.56,134.87,121.77,134.75Z"/><path class="cls-6" d="M111.54,166l16.83-9.64a4.12,4.12,0,0,0,1.72-3.28v-6c0-1.26-.77-1.84-1.72-1.3l-16.83,9.64a4.12,4.12,0,0,0-1.72,3.28v6C109.82,166,110.59,166.57,111.54,166Z"/><path class="cls-4" d="M129.21,145.61a1.71,1.71,0,0,1,.43,1.25v6a4.1,4.1,0,0,1-1.72,3.28l-16.83,9.64a1.24,1.24,0,0,1-.84.18,1,1,0,0,0,1.29.05l16.83-9.64a4.12,4.12,0,0,0,1.72-3.28v-6C130.09,146.23,129.73,145.7,129.21,145.61Z"/><path class="cls-2" d="M116.6,159.49l1.55-.9a.9.9,0,0,0,.37-.71v-1.65c0-.27-.17-.4-.37-.28l-1.55.89a.91.91,0,0,0-.37.71v1.65C116.23,159.48,116.4,159.6,116.6,159.49Z"/><path class="cls-4" d="M121.77,156.5l1.54-.89a.88.88,0,0,0,.37-.71v-1.65c0-.28-.16-.4-.37-.28l-1.54.89a.89.89,0,0,0-.38.71v1.65C121.39,156.5,121.56,156.62,121.77,156.5Z"/><path class="cls-6" d="M111.54,122.52l16.83-9.64a4.08,4.08,0,0,0,1.72-3.27v-6c0-1.27-.77-1.85-1.72-1.3l-16.83,9.64a4.1,4.1,0,0,0-1.72,3.28v6C109.82,122.49,110.59,123.07,111.54,122.52Z"/><path class="cls-4" d="M129.21,102.11a1.69,1.69,0,0,1,.43,1.25v6a4.12,4.12,0,0,1-1.72,3.28l-16.83,9.64a1.3,1.3,0,0,1-.84.18,1,1,0,0,0,1.29,0l16.83-9.64a4.08,4.08,0,0,0,1.72-3.27v-6C130.09,102.73,129.73,102.2,129.21,102.11Z"/><path class="cls-2" d="M116.6,116l1.55-.89a.91.91,0,0,0,.37-.71v-1.65c0-.28-.17-.4-.37-.28l-1.55.89a.91.91,0,0,0-.37.71v1.65C116.23,116,116.4,116.1,116.6,116Z"/><path class="cls-4" d="M121.77,113l1.54-.89a.88.88,0,0,0,.37-.71v-1.65c0-.28-.16-.4-.37-.29l-1.54.9a.89.89,0,0,0-.38.71v1.65C121.39,113,121.56,113.12,121.77,113Z"/><path class="cls-1" d="M97,94.61,58.12,72.19a3.78,3.78,0,0,1-1.57-3V61.77c0-1.16.7-1.69,1.57-1.19L97,83a3.76,3.76,0,0,1,1.57,3v7.41C98.53,94.58,97.83,95.11,97,94.61Z"/><path class="cls-8" d="M95.84,92,59.24,70.88a1.9,1.9,0,0,1-.8-1.53V63.78c0-.58.35-.85.8-.6l36.6,21.14a1.9,1.9,0,0,1,.8,1.52v5.57C96.64,92,96.28,92.27,95.84,92Z"/><path class="cls-3" d="M66.86,72.47,61.4,69.31a1.84,1.84,0,0,1-.77-1.48h0c0-.57.34-.83.77-.58l5.46,3.15a1.86,1.86,0,0,1,.78,1.48h0C67.64,72.45,67.29,72.71,66.86,72.47Z"/><path class="cls-6" d="M71.52,74.12c0,.57-.4.8-.9.52a2,2,0,0,1-.89-1.55c0-.57.4-.8.89-.52A2,2,0,0,1,71.52,74.12Z"/><path class="cls-6" d="M74.68,76c0,.57-.4.8-.9.51a2,2,0,0,1-.89-1.55c0-.57.4-.8.89-.52A2,2,0,0,1,74.68,76Z"/><path class="cls-3" d="M77.84,77.77c0,.57-.4.8-.9.52a2,2,0,0,1-.89-1.55c0-.58.4-.81.89-.52A2,2,0,0,1,77.84,77.77Z"/><path class="cls-6" d="M81,79.59c0,.57-.4.81-.9.52a2,2,0,0,1-.89-1.55c0-.57.4-.8.89-.52A2,2,0,0,1,81,79.59Z"/><path class="cls-6" d="M94.3,88.91l-1.84-1.06A1.19,1.19,0,0,1,92,86.9V85c0-.36.22-.53.49-.37l1.84,1.06a1.17,1.17,0,0,1,.5,1v2C94.8,88.9,94.58,89.07,94.3,88.91Z"/><path class="cls-1" d="M97,107.67,58.12,85.25a3.78,3.78,0,0,1-1.57-3V74.83c0-1.16.7-1.69,1.57-1.19L97,96.07a3.75,3.75,0,0,1,1.57,3v7.41C98.53,107.64,97.83,108.17,97,107.67Z"/><path class="cls-8" d="M95.84,105.07,59.24,83.94a1.9,1.9,0,0,1-.8-1.53V76.84c0-.58.35-.85.8-.6l36.6,21.14a1.9,1.9,0,0,1,.8,1.52v5.57C96.64,105.06,96.28,105.33,95.84,105.07Z"/><path class="cls-3" d="M66.86,85.53,61.4,82.37a1.84,1.84,0,0,1-.77-1.48h0c0-.57.34-.83.77-.59l5.46,3.16a1.86,1.86,0,0,1,.78,1.48h0C67.64,85.51,67.29,85.77,66.86,85.53Z"/><path class="cls-4" d="M71.52,87.18c0,.57-.4.8-.9.52a2,2,0,0,1-.89-1.55c0-.57.4-.81.89-.52A2,2,0,0,1,71.52,87.18Z"/><path class="cls-6" d="M74.68,89c0,.58-.4.81-.9.52A2,2,0,0,1,72.89,88c0-.57.4-.8.89-.52A2,2,0,0,1,74.68,89Z"/><path class="cls-3" d="M77.84,90.83c0,.57-.4.8-.9.52a2,2,0,0,1-.89-1.56c0-.57.4-.8.89-.51A2,2,0,0,1,77.84,90.83Z"/><path class="cls-6" d="M81,92.65c0,.57-.4.8-.9.52a2,2,0,0,1-.89-1.55c0-.57.4-.8.89-.52A2,2,0,0,1,81,92.65Z"/><path class="cls-6" d="M94.3,102l-1.84-1.06a1.19,1.19,0,0,1-.49-1V98c0-.36.22-.53.49-.37L94.3,98.7a1.17,1.17,0,0,1,.5,1v1.95C94.8,102,94.58,102.13,94.3,102Z"/><path class="cls-1" d="M97,120.73,58.12,98.31a3.78,3.78,0,0,1-1.57-3V87.89c0-1.16.7-1.69,1.57-1.19L97,109.13a3.75,3.75,0,0,1,1.57,3v7.41C98.53,120.7,97.83,121.23,97,120.73Z"/><path class="cls-8" d="M95.84,118.13,59.24,97a1.9,1.9,0,0,1-.8-1.53V89.9c0-.59.35-.86.8-.6l36.6,21.13a1.93,1.93,0,0,1,.8,1.53v5.57C96.64,118.12,96.28,118.39,95.84,118.13Z"/><path class="cls-3" d="M66.86,98.59,61.4,95.43A1.85,1.85,0,0,1,60.63,94h0c0-.57.34-.83.77-.59l5.46,3.16A1.86,1.86,0,0,1,67.64,98h0C67.64,98.57,67.29,98.83,66.86,98.59Z"/><path class="cls-4" d="M71.52,100.24c0,.57-.4.8-.9.52a2,2,0,0,1-.89-1.55c0-.57.4-.81.89-.52A2,2,0,0,1,71.52,100.24Z"/><path class="cls-6" d="M74.68,102.06c0,.58-.4.81-.9.52a2,2,0,0,1-.89-1.55c0-.57.4-.8.89-.52A2,2,0,0,1,74.68,102.06Z"/><path class="cls-3" d="M77.84,103.89c0,.57-.4.8-.9.51a2,2,0,0,1-.89-1.55c0-.57.4-.8.89-.51A2,2,0,0,1,77.84,103.89Z"/><path class="cls-6" d="M81,105.71c0,.57-.4.8-.9.52a2,2,0,0,1-.89-1.55c0-.57.4-.8.89-.52A2,2,0,0,1,81,105.71Z"/><path class="cls-6" d="M94.3,115,92.46,114a1.21,1.21,0,0,1-.49-1v-2c0-.37.22-.53.49-.38l1.84,1.07a1.17,1.17,0,0,1,.5.95v2C94.8,115,94.58,115.19,94.3,115Z"/><path class="cls-1" d="M97,133.79,58.12,111.36a3.75,3.75,0,0,1-1.57-3V101c0-1.16.7-1.69,1.57-1.19L97,122.18a3.78,3.78,0,0,1,1.57,3v7.41C98.53,133.76,97.83,134.29,97,133.79Z"/><path class="cls-8" d="M95.84,131.19l-36.6-21.13a1.9,1.9,0,0,1-.8-1.53V103c0-.59.35-.86.8-.6l36.6,21.13a1.93,1.93,0,0,1,.8,1.53v5.57C96.64,131.18,96.28,131.45,95.84,131.19Z"/><path class="cls-3" d="M66.86,111.65l-5.46-3.16a1.85,1.85,0,0,1-.77-1.48h0c0-.57.34-.83.77-.59l5.46,3.16a1.84,1.84,0,0,1,.78,1.48h0C67.64,111.63,67.29,111.89,66.86,111.65Z"/><path class="cls-6" d="M71.52,113.3c0,.57-.4.8-.9.52a2,2,0,0,1-.89-1.55c0-.58.4-.81.89-.52A2,2,0,0,1,71.52,113.3Z"/><path class="cls-6" d="M74.68,115.12c0,.57-.4.81-.9.52a2,2,0,0,1-.89-1.55c0-.57.4-.8.89-.52A2,2,0,0,1,74.68,115.12Z"/><path class="cls-3" d="M77.84,117c0,.57-.4.8-.9.51a2,2,0,0,1-.89-1.55c0-.57.4-.8.89-.51A2,2,0,0,1,77.84,117Z"/><path class="cls-6" d="M81,118.77c0,.57-.4.8-.9.52a2,2,0,0,1-.89-1.55c0-.57.4-.81.89-.52A2,2,0,0,1,81,118.77Z"/><path class="cls-3" d="M94.3,128.09,92.46,127a1.21,1.21,0,0,1-.49-1v-2c0-.37.22-.53.49-.38l1.84,1.07a1.17,1.17,0,0,1,.5,1v1.94C94.8,128.08,94.58,128.25,94.3,128.09Z"/><path class="cls-1" d="M97,146.85,58.12,124.42a3.75,3.75,0,0,1-1.57-3V114c0-1.16.7-1.69,1.57-1.19L97,135.24a3.78,3.78,0,0,1,1.57,3v7.41C98.53,146.82,97.83,147.35,97,146.85Z"/><path class="cls-8" d="M95.84,144.25l-36.6-21.14a1.87,1.87,0,0,1-.8-1.52V116c0-.59.35-.86.8-.6l36.6,21.13a1.93,1.93,0,0,1,.8,1.53v5.57C96.64,144.23,96.28,144.51,95.84,144.25Z"/><path class="cls-3" d="M66.86,124.7l-5.46-3.15a1.85,1.85,0,0,1-.77-1.48h0c0-.57.34-.83.77-.59l5.46,3.16a1.84,1.84,0,0,1,.78,1.48h0C67.64,124.69,67.29,125,66.86,124.7Z"/><path class="cls-6" d="M71.52,126.36c0,.57-.4.8-.9.52a2,2,0,0,1-.89-1.56c0-.57.4-.8.89-.51A2,2,0,0,1,71.52,126.36Z"/><path class="cls-4" d="M74.68,128.18c0,.57-.4.81-.9.52a2,2,0,0,1-.89-1.55c0-.57.4-.8.89-.52A2,2,0,0,1,74.68,128.18Z"/><path class="cls-3" d="M77.84,130c0,.57-.4.8-.9.51a2,2,0,0,1-.89-1.55c0-.57.4-.8.89-.51A2,2,0,0,1,77.84,130Z"/><path class="cls-4" d="M81,131.83c0,.57-.4.8-.9.52a2,2,0,0,1-.89-1.55c0-.57.4-.81.89-.52A2,2,0,0,1,81,131.83Z"/><path class="cls-3" d="M94.3,141.15l-1.84-1.06a1.21,1.21,0,0,1-.49-1v-1.95c0-.37.22-.54.49-.38l1.84,1.07a1.16,1.16,0,0,1,.5,1v1.94C94.8,141.14,94.58,141.31,94.3,141.15Z"/><path class="cls-1" d="M97,159.91,58.12,137.48a3.76,3.76,0,0,1-1.57-3v-7.41c0-1.16.7-1.69,1.57-1.19L97,148.3a3.78,3.78,0,0,1,1.57,3v7.41C98.53,159.88,97.83,160.41,97,159.91Z"/><path class="cls-8" d="M95.84,157.31l-36.6-21.14a1.87,1.87,0,0,1-.8-1.52v-5.57c0-.59.35-.86.8-.6l36.6,21.13a1.93,1.93,0,0,1,.8,1.53v5.57C96.64,157.29,96.28,157.56,95.84,157.31Z"/><path class="cls-3" d="M66.86,137.76l-5.46-3.15a1.85,1.85,0,0,1-.77-1.48h0c0-.57.34-.84.77-.59l5.46,3.16a1.84,1.84,0,0,1,.78,1.48h0C67.64,137.75,67.29,138,66.86,137.76Z"/><path class="cls-6" d="M71.52,139.42c0,.57-.4.8-.9.52a2,2,0,0,1-.89-1.56c0-.57.4-.8.89-.51A2,2,0,0,1,71.52,139.42Z"/><path class="cls-6" d="M74.68,141.24c0,.57-.4.8-.9.52a2,2,0,0,1-.89-1.55c0-.57.4-.8.89-.52A2,2,0,0,1,74.68,141.24Z"/><path class="cls-3" d="M77.84,143.07c0,.57-.4.8-.9.51a2,2,0,0,1-.89-1.55c0-.57.4-.8.89-.52A2,2,0,0,1,77.84,143.07Z"/><path class="cls-6" d="M81,144.89c0,.57-.4.8-.9.52a2,2,0,0,1-.89-1.55c0-.58.4-.81.89-.52A2,2,0,0,1,81,144.89Z"/><path class="cls-6" d="M94.3,154.21l-1.84-1.06a1.21,1.21,0,0,1-.49-1v-1.95c0-.37.22-.54.49-.38l1.84,1.07a1.16,1.16,0,0,1,.5.95v1.94C94.8,154.2,94.58,154.37,94.3,154.21Z"/><path class="cls-1" d="M97,173,58.12,150.54a3.76,3.76,0,0,1-1.57-3v-7.41c0-1.16.7-1.69,1.57-1.19L97,161.36a3.76,3.76,0,0,1,1.57,3v7.41C98.53,172.93,97.83,173.47,97,173Z"/><path class="cls-8" d="M95.84,170.37l-36.6-21.14a1.87,1.87,0,0,1-.8-1.52v-5.57c0-.59.35-.86.8-.6l36.6,21.13a1.93,1.93,0,0,1,.8,1.53v5.57C96.64,170.35,96.28,170.62,95.84,170.37Z"/><path class="cls-3" d="M66.86,150.82l-5.46-3.15a1.85,1.85,0,0,1-.77-1.48h0c0-.57.34-.84.77-.59l5.46,3.16a1.84,1.84,0,0,1,.78,1.48h0C67.64,150.81,67.29,151.07,66.86,150.82Z"/><path class="cls-4" d="M72.52,153.18c0,1.08-.76,1.52-1.69,1a3.72,3.72,0,0,1-1.69-2.93c0-1.08.75-1.51,1.69-1A3.76,3.76,0,0,1,72.52,153.18Z"/><path class="cls-6" d="M79.06,157c0,.57-.4.81-.89.52a2,2,0,0,1-.9-1.55c0-.57.4-.8.9-.52A2,2,0,0,1,79.06,157Z"/><path class="cls-3" d="M82.22,158.84c0,.57-.4.8-.9.51a2,2,0,0,1-.89-1.55c0-.57.4-.8.89-.51A2,2,0,0,1,82.22,158.84Z"/><path class="cls-6" d="M85.38,160.66c0,.57-.4.8-.9.52a2,2,0,0,1-.89-1.55c0-.57.4-.81.89-.52A2,2,0,0,1,85.38,160.66Z"/><path class="cls-3" d="M94.3,167.27l-1.84-1.06a1.21,1.21,0,0,1-.49-1v-1.95c0-.37.22-.54.49-.38L94.3,164a1.19,1.19,0,0,1,.5,1v1.94C94.8,167.26,94.58,167.43,94.3,167.27Z"/><path class="cls-5" d="M162.28,222.66,120.83,199c-1.52-.87-1.33-2.4.42-3.41l23.85-13.77a6.6,6.6,0,0,1,5.92-.25l41.45,23.64c1.52.88,1.33,2.4-.42,3.42L168.2,222.42A6.57,6.57,0,0,1,162.28,222.66Z"/><path class="cls-2" d="M196.17,197.27h0V100.49L157.69,90.42l-7.08-4.09a7,7,0,0,0-6.35.27l-6.61,3.81H117.13l6.08,93.43a1.82,1.82,0,0,0,1.09,1.7l38.39,29a7.07,7.07,0,0,0,6.35-.26l25.58-14.78A2.5,2.5,0,0,0,196.17,197.27Z"/><path class="cls-3" d="M147.66,85.7a7.27,7.27,0,0,0-3.4.9l-6.61,3.81H117.13v97a1.83,1.83,0,0,0,1.09,1.7l44.47,25.36a5.82,5.82,0,0,0,2.95.63l.45-97.65Z"/><path class="cls-1" d="M163.1,214.7a7.2,7.2,0,0,0,5.07-.06V116.33H163.1Z"/><path class="cls-3" d="M162.69,117.49,118.22,92.14c-1.63-.94-1.42-2.58.45-3.67L144.26,73.7a7.07,7.07,0,0,1,6.35-.26l44.47,25.35c1.63.94,1.42,2.58-.46,3.67L169,117.23A7,7,0,0,1,162.69,117.49Z"/><path class="cls-7" d="M194.62,100.66,169,115.43a7,7,0,0,1-6.35.26L118.22,90.34a2.51,2.51,0,0,1-.81-.72,1.7,1.7,0,0,0,.81,2.52l44.47,25.35a7,7,0,0,0,6.35-.26l25.58-14.77c1.46-.84,1.91-2,1.27-2.95A3.52,3.52,0,0,1,194.62,100.66Z"/><path class="cls-6" d="M164,107.22,134.34,90.05c-.76-.44-.67-1.2.21-1.71l12-6.91a3.29,3.29,0,0,1,3-.13l29.6,17.17c.77.44.67,1.2-.21,1.71l-12,6.91A3.29,3.29,0,0,1,164,107.22Z"/><path class="cls-3" d="M148,90.82l-1.71-1c-.11-.06-.09-.16,0-.23l1.65-1a.48.48,0,0,1,.42,0l1.71,1c.11.06.09.17,0,.24l-1.66,1A.43.43,0,0,1,148,90.82Z"/><path class="cls-3" d="M153.7,94.12l-1.72-1c-.11-.06-.09-.17,0-.24l1.66-1a.46.46,0,0,1,.41,0l1.71,1c.11.06.09.17,0,.24l-1.65.95A.46.46,0,0,1,153.7,94.12Z"/><path class="cls-3" d="M159.43,97.42l-1.72-1c-.1-.07-.09-.17,0-.24l1.66-1a.43.43,0,0,1,.41,0l1.71,1c.11.06.1.16,0,.23l-1.66,1A.46.46,0,0,1,159.43,97.42Z"/><path class="cls-3" d="M165.16,100.71l-1.72-1c-.1-.06-.09-.17,0-.24l1.66-1a.46.46,0,0,1,.41,0l1.72,1c.1.06.09.17,0,.24l-1.66,1A.46.46,0,0,1,165.16,100.71Z"/><path class="cls-1" d="M134.34,90.05l0,0,.17-.12,12-6.91a3.29,3.29,0,0,1,3-.12l29.57,17.14c.7-.5.74-1.19,0-1.59L149.5,81.3a3.29,3.29,0,0,0-3,.13l-12,6.91C133.67,88.85,133.58,89.61,134.34,90.05Z"/><path class="cls-6" d="M174,136.67,190.87,127a4.12,4.12,0,0,0,1.71-3.28v-6c0-1.26-.77-1.84-1.71-1.29L174,126.07a4.11,4.11,0,0,0-1.71,3.28v6C172.32,136.63,173.08,137.21,174,136.67Z"/><path class="cls-4" d="M191.7,116.25a1.72,1.72,0,0,1,.43,1.26v6a4.08,4.08,0,0,1-1.72,3.27l-16.83,9.64a1.16,1.16,0,0,1-.83.18,1,1,0,0,0,1.28,0L190.87,127a4.12,4.12,0,0,0,1.71-3.28v-6C192.58,116.87,192.22,116.34,191.7,116.25Z"/><path class="cls-2" d="M179.09,130.13l1.55-.89a.89.89,0,0,0,.37-.72v-1.65c0-.27-.16-.4-.37-.28l-1.55.89a.92.92,0,0,0-.37.72v1.65C178.72,130.12,178.89,130.25,179.09,130.13Z"/><path class="cls-4" d="M184.26,127.15l1.54-.89a.9.9,0,0,0,.38-.72v-1.65c0-.27-.17-.4-.38-.28l-1.54.89a.9.9,0,0,0-.38.72v1.64C183.88,127.14,184.05,127.27,184.26,127.15Z"/><path class="cls-6" d="M174,180.17l16.84-9.64a4.12,4.12,0,0,0,1.71-3.28v-6c0-1.26-.77-1.84-1.71-1.29L174,169.58a4.08,4.08,0,0,0-1.71,3.27v6C172.32,180.14,173.08,180.72,174,180.17Z"/><path class="cls-4" d="M191.7,159.76a1.69,1.69,0,0,1,.43,1.25v6a4.12,4.12,0,0,1-1.72,3.28l-16.83,9.63a1.23,1.23,0,0,1-.83.19,1,1,0,0,0,1.28,0l16.84-9.64a4.12,4.12,0,0,0,1.71-3.28v-6C192.58,160.38,192.22,159.85,191.7,159.76Z"/><path class="cls-2" d="M179.09,173.63l1.55-.89A.89.89,0,0,0,181,172v-1.65c0-.27-.16-.4-.37-.28l-1.55.89a.92.92,0,0,0-.37.72v1.65C178.72,173.62,178.89,173.75,179.09,173.63Z"/><path class="cls-4" d="M184.26,170.65l1.54-.89a.9.9,0,0,0,.38-.72v-1.65c0-.27-.17-.4-.38-.28l-1.54.89a.9.9,0,0,0-.38.72v1.65C183.88,170.64,184.05,170.77,184.26,170.65Z"/><path class="cls-6" d="M174,201.92l16.84-9.64a4.1,4.1,0,0,0,1.71-3.27v-6c0-1.27-.77-1.85-1.71-1.3L174,191.33a4.08,4.08,0,0,0-1.71,3.27v6C172.32,201.89,173.08,202.47,174,201.92Z"/><path class="cls-4" d="M191.7,181.51a1.69,1.69,0,0,1,.43,1.25v6a4.12,4.12,0,0,1-1.72,3.28l-16.83,9.64a1.28,1.28,0,0,1-.83.18,1,1,0,0,0,1.28,0l16.84-9.64a4.1,4.1,0,0,0,1.71-3.27v-6C192.58,182.13,192.22,181.6,191.7,181.51Z"/><path class="cls-2" d="M179.09,195.38l1.55-.89a.88.88,0,0,0,.37-.71v-1.65c0-.28-.16-.41-.37-.29l-1.55.89a.92.92,0,0,0-.37.72v1.65C178.72,195.37,178.89,195.5,179.09,195.38Z"/><path class="cls-4" d="M184.26,192.4l1.54-.89a.9.9,0,0,0,.38-.72v-1.65c0-.27-.17-.4-.38-.28l-1.54.89a.9.9,0,0,0-.38.72v1.65C183.88,192.39,184.05,192.52,184.26,192.4Z"/><path class="cls-6" d="M174,158.42l16.84-9.64a4.12,4.12,0,0,0,1.71-3.28v-6c0-1.26-.77-1.84-1.71-1.29L174,147.82a4.11,4.11,0,0,0-1.71,3.28v6C172.32,158.39,173.08,159,174,158.42Z"/><path class="cls-4" d="M191.7,138a1.72,1.72,0,0,1,.43,1.26v6a4.08,4.08,0,0,1-1.72,3.27l-16.83,9.64a1.16,1.16,0,0,1-.83.18,1,1,0,0,0,1.28,0l16.84-9.64a4.12,4.12,0,0,0,1.71-3.28v-6C192.58,138.63,192.22,138.09,191.7,138Z"/><path class="cls-2" d="M179.09,151.88l1.55-.89a.89.89,0,0,0,.37-.72v-1.65c0-.27-.16-.4-.37-.28l-1.55.89a.92.92,0,0,0-.37.72v1.65C178.72,151.87,178.89,152,179.09,151.88Z"/><path class="cls-4" d="M184.26,148.9l1.54-.89a.9.9,0,0,0,.38-.72v-1.65c0-.27-.17-.4-.38-.28l-1.54.89a.9.9,0,0,0-.38.72v1.65C183.88,148.89,184.05,149,184.26,148.9Z"/><path class="cls-1" d="M159.45,130.51l-38.84-22.43a3.76,3.76,0,0,1-1.57-3v-7.4c0-1.16.7-1.69,1.57-1.19l38.84,22.42a3.77,3.77,0,0,1,1.58,3v7.41C161,130.47,160.32,131,159.45,130.51Z"/><path class="cls-8" d="M158.34,127.91l-36.61-21.14a1.9,1.9,0,0,1-.8-1.52V99.68c0-.59.36-.86.8-.6l36.61,21.13a1.92,1.92,0,0,1,.79,1.53v5.57C159.13,127.89,158.78,128.16,158.34,127.91Z"/><path class="cls-3" d="M129.36,108.36l-5.47-3.15a1.88,1.88,0,0,1-.77-1.48h0c0-.57.35-.84.77-.59l5.47,3.16a1.84,1.84,0,0,1,.77,1.48h0C130.13,108.35,129.79,108.61,129.36,108.36Z"/><path class="cls-6" d="M134,110c0,.57-.4.8-.89.51a2,2,0,0,1-.9-1.55c0-.57.4-.8.9-.51A2,2,0,0,1,134,110Z"/><path class="cls-6" d="M137.17,111.84c0,.57-.4.8-.89.52a2,2,0,0,1-.9-1.55c0-.57.4-.81.9-.52A2,2,0,0,1,137.17,111.84Z"/><path class="cls-3" d="M140.33,113.66c0,.58-.4.81-.89.52a2,2,0,0,1-.9-1.55c0-.57.4-.8.9-.52A2,2,0,0,1,140.33,113.66Z"/><path class="cls-6" d="M143.49,115.49c0,.57-.4.8-.9.52a2,2,0,0,1-.89-1.56c0-.57.4-.8.89-.51A2,2,0,0,1,143.49,115.49Z"/><path class="cls-6" d="M156.8,124.81,155,123.75a1.19,1.19,0,0,1-.5-1v-2c0-.37.22-.54.5-.38l1.84,1.06a1.21,1.21,0,0,1,.49,1v1.94C157.29,124.8,157.07,125,156.8,124.81Z"/><path class="cls-1" d="M159.45,143.56l-38.84-22.42a3.76,3.76,0,0,1-1.57-3v-7.4c0-1.16.7-1.69,1.57-1.19L159.45,132a3.77,3.77,0,0,1,1.58,3v7.4C161,143.53,160.32,144.07,159.45,143.56Z"/><path class="cls-8" d="M158.34,141l-36.61-21.14a1.91,1.91,0,0,1-.8-1.52v-5.57c0-.59.36-.86.8-.6l36.61,21.13a1.92,1.92,0,0,1,.79,1.53v5.56C159.13,141,158.78,141.22,158.34,141Z"/><path class="cls-3" d="M129.36,121.42l-5.47-3.15a1.88,1.88,0,0,1-.77-1.48h0c0-.57.35-.84.77-.59l5.47,3.15a1.87,1.87,0,0,1,.77,1.49h0C130.13,121.41,129.79,121.67,129.36,121.42Z"/><path class="cls-4" d="M134,123.08c0,.57-.4.8-.89.51a2,2,0,0,1-.9-1.55c0-.57.4-.8.9-.51A2,2,0,0,1,134,123.08Z"/><path class="cls-6" d="M137.17,124.9c0,.57-.4.8-.89.52a2,2,0,0,1-.9-1.55c0-.57.4-.81.9-.52A2,2,0,0,1,137.17,124.9Z"/><path class="cls-3" d="M140.33,126.72c0,.58-.4.81-.89.52a2,2,0,0,1-.9-1.55c0-.57.4-.8.9-.52A2,2,0,0,1,140.33,126.72Z"/><path class="cls-6" d="M143.49,128.55c0,.57-.4.8-.9.51a2,2,0,0,1-.89-1.55c0-.57.4-.8.89-.51A2,2,0,0,1,143.49,128.55Z"/><path class="cls-6" d="M156.8,137.87,155,136.81a1.19,1.19,0,0,1-.5-1v-1.94c0-.37.22-.54.5-.38l1.84,1.06a1.21,1.21,0,0,1,.49.95v2C157.29,137.86,157.07,138,156.8,137.87Z"/><path class="cls-1" d="M159.45,156.62,120.61,134.2a3.76,3.76,0,0,1-1.57-3v-7.4c0-1.16.7-1.69,1.57-1.19L159.45,145a3.77,3.77,0,0,1,1.58,3v7.4C161,156.59,160.32,157.13,159.45,156.62Z"/><path class="cls-8" d="M158.34,154l-36.61-21.14a1.91,1.91,0,0,1-.8-1.52V125.8c0-.59.36-.86.8-.61l36.61,21.14a1.92,1.92,0,0,1,.79,1.53v5.56C159.13,154,158.78,154.28,158.34,154Z"/><path class="cls-3" d="M129.36,134.48l-5.47-3.15a1.88,1.88,0,0,1-.77-1.48h0c0-.58.35-.84.77-.59l5.47,3.15a1.85,1.85,0,0,1,.77,1.49h0C130.13,134.47,129.79,134.73,129.36,134.48Z"/><path class="cls-4" d="M134,136.14c0,.57-.4.8-.89.51a2,2,0,0,1-.9-1.55c0-.57.4-.8.9-.52A2,2,0,0,1,134,136.14Z"/><path class="cls-6" d="M137.17,138c0,.57-.4.8-.89.52a2,2,0,0,1-.9-1.55c0-.58.4-.81.9-.52A2,2,0,0,1,137.17,138Z"/><path class="cls-3" d="M140.33,139.78c0,.57-.4.81-.89.52a2,2,0,0,1-.9-1.55c0-.57.4-.8.9-.52A2,2,0,0,1,140.33,139.78Z"/><path class="cls-6" d="M143.49,141.61c0,.57-.4.8-.9.51a2,2,0,0,1-.89-1.55c0-.57.4-.8.89-.51A2,2,0,0,1,143.49,141.61Z"/><path class="cls-6" d="M156.8,150.93,155,149.86a1.16,1.16,0,0,1-.5-1V147c0-.37.22-.54.5-.38l1.84,1.06a1.21,1.21,0,0,1,.49.95v2C157.29,150.92,157.07,151.09,156.8,150.93Z"/><path class="cls-1" d="M159.45,169.68l-38.84-22.42a3.76,3.76,0,0,1-1.57-3v-7.4c0-1.16.7-1.69,1.57-1.19l38.84,22.42a3.77,3.77,0,0,1,1.58,3v7.4C161,169.65,160.32,170.19,159.45,169.68Z"/><path class="cls-8" d="M158.34,167.09,121.73,146a1.91,1.91,0,0,1-.8-1.52v-5.57c0-.59.36-.86.8-.61l36.61,21.14a1.91,1.91,0,0,1,.79,1.53v5.56C159.13,167.07,158.78,167.34,158.34,167.09Z"/><path class="cls-3" d="M129.36,147.54l-5.47-3.15a1.88,1.88,0,0,1-.77-1.48h0c0-.58.35-.84.77-.59l5.47,3.15a1.85,1.85,0,0,1,.77,1.48h0C130.13,147.53,129.79,147.79,129.36,147.54Z"/><path class="cls-6" d="M134,149.2c0,.57-.4.8-.89.51a2,2,0,0,1-.9-1.55c0-.57.4-.8.9-.52A2,2,0,0,1,134,149.2Z"/><path class="cls-6" d="M137.17,151c0,.57-.4.8-.89.52a2,2,0,0,1-.9-1.56c0-.57.4-.8.9-.51A2,2,0,0,1,137.17,151Z"/><path class="cls-3" d="M140.33,152.84c0,.57-.4.81-.89.52a2,2,0,0,1-.9-1.55c0-.57.4-.8.9-.52A2,2,0,0,1,140.33,152.84Z"/><path class="cls-6" d="M143.49,154.67c0,.57-.4.8-.9.51a2,2,0,0,1-.89-1.55c0-.57.4-.8.89-.51A2,2,0,0,1,143.49,154.67Z"/><path class="cls-3" d="M156.8,164,155,162.92a1.16,1.16,0,0,1-.5-.95V160c0-.37.22-.54.5-.38l1.84,1.06a1.21,1.21,0,0,1,.49.95v2C157.29,164,157.07,164.14,156.8,164Z"/><path class="cls-1" d="M159.45,182.74l-38.84-22.42a3.76,3.76,0,0,1-1.57-3v-7.4c0-1.16.7-1.7,1.57-1.19l38.84,22.42a3.77,3.77,0,0,1,1.58,3v7.4C161,182.71,160.32,183.24,159.45,182.74Z"/><path class="cls-8" d="M158.34,180.15,121.73,159a1.91,1.91,0,0,1-.8-1.53v-5.56c0-.59.36-.86.8-.61l36.61,21.14a1.9,1.9,0,0,1,.79,1.52v5.57C159.13,180.13,158.78,180.4,158.34,180.15Z"/><path class="cls-3" d="M129.36,160.6l-5.47-3.15a1.88,1.88,0,0,1-.77-1.49h0c0-.57.35-.83.77-.58l5.47,3.15a1.85,1.85,0,0,1,.77,1.48h0C130.13,160.59,129.79,160.85,129.36,160.6Z"/><path class="cls-6" d="M134,162.25c0,.58-.4.81-.89.52a2,2,0,0,1-.9-1.55c0-.57.4-.8.9-.52A2,2,0,0,1,134,162.25Z"/><path class="cls-4" d="M137.17,164.08c0,.57-.4.8-.89.52a2,2,0,0,1-.9-1.56c0-.57.4-.8.9-.51A2,2,0,0,1,137.17,164.08Z"/><path class="cls-3" d="M140.33,165.9c0,.57-.4.8-.89.52a2,2,0,0,1-.9-1.55c0-.57.4-.8.9-.52A2,2,0,0,1,140.33,165.9Z"/><path class="cls-4" d="M143.49,167.73c0,.57-.4.8-.9.51a2,2,0,0,1-.89-1.55c0-.57.4-.8.89-.52A2,2,0,0,1,143.49,167.73Z"/><path class="cls-3" d="M156.8,177.05,155,176a1.17,1.17,0,0,1-.5-.95v-1.94c0-.37.22-.54.5-.38l1.84,1.06a1.21,1.21,0,0,1,.49.95v1.95C157.29,177,157.07,177.2,156.8,177.05Z"/><path class="cls-1" d="M159.45,195.8l-38.84-22.42a3.76,3.76,0,0,1-1.57-3V163c0-1.16.7-1.7,1.57-1.19l38.84,22.42a3.77,3.77,0,0,1,1.58,3v7.4C161,195.77,160.32,196.3,159.45,195.8Z"/><path class="cls-8" d="M158.34,193.21l-36.61-21.14a1.91,1.91,0,0,1-.8-1.53V165c0-.59.36-.86.8-.61l36.61,21.14a1.9,1.9,0,0,1,.79,1.52v5.57C159.13,193.19,158.78,193.46,158.34,193.21Z"/><path class="cls-3" d="M129.36,173.66l-5.47-3.15a1.9,1.9,0,0,1-.77-1.49h0c0-.57.35-.83.77-.58l5.47,3.15a1.85,1.85,0,0,1,.77,1.48h0C130.13,173.64,129.79,173.91,129.36,173.66Z"/><path class="cls-6" d="M134,175.31c0,.57-.4.81-.89.52a2,2,0,0,1-.9-1.55c0-.57.4-.8.9-.52A2,2,0,0,1,134,175.31Z"/><path class="cls-6" d="M137.17,177.14c0,.57-.4.8-.89.51a2,2,0,0,1-.9-1.55c0-.57.4-.8.9-.51A2,2,0,0,1,137.17,177.14Z"/><path class="cls-3" d="M140.33,179c0,.57-.4.8-.89.52a2,2,0,0,1-.9-1.55c0-.57.4-.81.9-.52A2,2,0,0,1,140.33,179Z"/><path class="cls-6" d="M143.49,180.79c0,.57-.4.8-.9.51a2,2,0,0,1-.89-1.55c0-.57.4-.8.89-.52A2,2,0,0,1,143.49,180.79Z"/><path class="cls-6" d="M156.8,190.1,155,189a1.17,1.17,0,0,1-.5-.95v-2c0-.36.22-.53.5-.37l1.84,1.06a1.21,1.21,0,0,1,.49.95v1.95C157.29,190.1,157.07,190.26,156.8,190.1Z"/><path class="cls-1" d="M159.45,208.86l-38.84-22.42a3.76,3.76,0,0,1-1.57-3V176c0-1.16.7-1.7,1.57-1.19l38.84,22.42a3.77,3.77,0,0,1,1.58,3v7.4C161,208.83,160.32,209.36,159.45,208.86Z"/><path class="cls-8" d="M158.34,206.26l-36.61-21.13a1.93,1.93,0,0,1-.8-1.53V178c0-.59.36-.86.8-.61l36.61,21.14a1.9,1.9,0,0,1,.79,1.52v5.57C159.13,206.25,158.78,206.52,158.34,206.26Z"/><path class="cls-3" d="M129.36,186.72l-5.47-3.16a1.86,1.86,0,0,1-.77-1.48h0c0-.57.35-.83.77-.58l5.47,3.15a1.85,1.85,0,0,1,.77,1.48h0C130.13,186.7,129.79,187,129.36,186.72Z"/><path class="cls-4" d="M135,189.08c0,1.08-.76,1.52-1.69,1a3.75,3.75,0,0,1-1.69-2.93c0-1.08.76-1.52,1.69-1A3.75,3.75,0,0,1,135,189.08Z"/><path class="cls-6" d="M141.55,192.91c0,.57-.4.8-.89.52a2,2,0,0,1-.9-1.56c0-.57.4-.8.9-.51A2,2,0,0,1,141.55,192.91Z"/><path class="cls-3" d="M144.71,194.73c0,.57-.4.8-.89.52a2,2,0,0,1-.9-1.55c0-.57.4-.8.9-.52A2,2,0,0,1,144.71,194.73Z"/><path class="cls-6" d="M147.87,196.56c0,.57-.4.8-.89.51a2,2,0,0,1-.9-1.55c0-.57.4-.8.9-.51A2,2,0,0,1,147.87,196.56Z"/><path class="cls-3" d="M156.8,203.16,155,202.1a1.17,1.17,0,0,1-.5-.95v-2c0-.36.22-.53.5-.37l1.84,1.06a1.19,1.19,0,0,1,.49,1v1.95C157.29,203.15,157.07,203.32,156.8,203.16Z"/><path class="cls-3" d="M204.06,94.06l-1.68-1V90.68a9,9,0,0,0-4-7l-12.7-7.28c-2.23-1.3-4-.24-4,2.34v26L179.9,80.16V77.75c0-3.65,2.57-5.13,5.73-3.31l12.7,7.28a12.7,12.7,0,0,1,5.73,9.93Z"/><path class="cls-3" d="M198.33,97.35l5.73-3.29-1.16-4-1.6-4s-2.76-3.07-3-3.13-7.7-4.33-7.7-4.33l-6.25-4.5-3,.11-5.53,3.17,4,1.65s2.25,1.12,2.76,1.26a18.89,18.89,0,0,1,2.78,2.26l2.72,1.11.58-.1,4.87,3.42,1.57.69L196,89l1.3,3.63Z"/><path class="cls-2" d="M181.58,104.68l-5.72,3.3s-.37-27.25-.37-27.29,1.25-1.8,1.25-1.8l3.1-.6,2.46,1.86-.77-.31-.33.19.38.6Z"/><path class="cls-1" d="M198.33,97.35l-1.67-1V94a9,9,0,0,0-4.06-7l-12.69-7.28c-2.23-1.29-4-.24-4,2.34v26l-1.68-1v-26c0-3.65,2.57-5.14,5.73-3.31L192.6,85A12.68,12.68,0,0,1,198.33,95Z"/><path class="cls-5" d="M223.09,251.71,194,235.14c-1.06-.62-.93-1.69.3-2.4l16.72-9.65a4.57,4.57,0,0,1,4.14-.17l29.07,16.57c1.06.61.92,1.68-.3,2.39l-16.72,9.66A4.65,4.65,0,0,1,223.09,251.71Z"/><path class="cls-2" d="M258.66,209.56h0V112.78l-38.47-10.07-7.09-4.09a7,7,0,0,0-6.34.26l-6.62,3.82-20.52,0,6.08,93.43a1.83,1.83,0,0,0,1.09,1.7l38.39,29a7.07,7.07,0,0,0,6.35-.26l25.59-14.78A2.5,2.5,0,0,0,258.66,209.56Z"/><path class="cls-3" d="M210.16,98a7.11,7.11,0,0,0-3.4.89l-6.62,3.82-20.52,0v97a1.85,1.85,0,0,0,1.09,1.7l44.47,25.36a5.74,5.74,0,0,0,2.95.63l.46-97.65Z"/><path class="cls-1" d="M225.59,227a7.2,7.2,0,0,0,5.07-.06V128.61h-5.07Z"/><path class="cls-3" d="M225.18,129.78l-44.47-25.36c-1.62-.94-1.42-2.58.46-3.67L206.76,86a7.05,7.05,0,0,1,6.34-.26l44.47,25.36c1.63.94,1.42,2.58-.45,3.66l-25.59,14.77A7.07,7.07,0,0,1,225.18,129.78Z"/><path class="cls-7" d="M257.12,112.94l-25.59,14.77a7,7,0,0,1-6.35.27l-44.47-25.36a2.51,2.51,0,0,1-.81-.72,1.71,1.71,0,0,0,.81,2.52l44.47,25.36a7.07,7.07,0,0,0,6.35-.27l25.59-14.77c1.46-.84,1.9-2,1.26-2.94A3.55,3.55,0,0,1,257.12,112.94Z"/><path class="cls-6" d="M226.44,119.5l-29.61-17.16c-.76-.44-.66-1.21.22-1.72l12-6.91a3.29,3.29,0,0,1,3-.12l29.61,17.16c.76.44.66,1.21-.22,1.71l-12,6.92A3.32,3.32,0,0,1,226.44,119.5Z"/><path class="cls-3" d="M210.46,103.11l-1.72-1c-.1-.06-.09-.17,0-.24l1.66-1a.43.43,0,0,1,.41,0l1.71,1c.11.06.1.16,0,.23l-1.65,1A.46.46,0,0,1,210.46,103.11Z"/><path class="cls-3" d="M216.19,106.4l-1.72-1c-.1-.06-.09-.17,0-.24l1.66-1a.46.46,0,0,1,.41,0l1.72,1c.1.06.09.17,0,.24l-1.66,1A.46.46,0,0,1,216.19,106.4Z"/><path class="cls-3" d="M221.92,109.7l-1.72-1c-.1-.06-.09-.17,0-.24l1.66-1a.46.46,0,0,1,.41,0l1.72,1c.1.06.09.16,0,.23l-1.66,1A.46.46,0,0,1,221.92,109.7Z"/><path class="cls-3" d="M227.65,113l-1.71-1c-.11-.06-.1-.16,0-.23l1.65-1a.46.46,0,0,1,.41,0l1.72,1c.1.06.09.17,0,.24l-1.66,1A.46.46,0,0,1,227.65,113Z"/><path class="cls-1" d="M196.83,102.34l0,0a1.18,1.18,0,0,1,.18-.13l12-6.91a3.29,3.29,0,0,1,3-.12l29.57,17.14c.7-.5.74-1.19,0-1.59L212,93.59a3.29,3.29,0,0,0-3,.12l-12,6.91C196.17,101.13,196.07,101.9,196.83,102.34Z"/><path class="cls-6" d="M236.52,149l16.84-9.64a4.1,4.1,0,0,0,1.71-3.28v-6c0-1.26-.76-1.84-1.71-1.29l-16.84,9.64a4.1,4.1,0,0,0-1.71,3.27v6C234.81,148.92,235.58,149.5,236.52,149Z"/><path class="cls-4" d="M254.19,128.54a1.65,1.65,0,0,1,.43,1.25v6a4.14,4.14,0,0,1-1.71,3.28l-16.84,9.63a1.22,1.22,0,0,1-.83.19,1,1,0,0,0,1.28,0l16.84-9.64a4.1,4.1,0,0,0,1.71-3.28v-6C255.07,129.16,254.72,128.63,254.19,128.54Z"/><path class="cls-2" d="M241.59,142.41l1.54-.89a.9.9,0,0,0,.38-.72v-1.65c0-.27-.17-.4-.38-.28l-1.54.89a.9.9,0,0,0-.38.72v1.65C241.21,142.4,241.38,142.53,241.59,142.41Z"/><path class="cls-4" d="M246.75,139.43l1.55-.89a.92.92,0,0,0,.37-.72v-1.65c0-.27-.17-.4-.37-.28l-1.55.89a.89.89,0,0,0-.37.72v1.65C246.38,139.42,246.54,139.55,246.75,139.43Z"/><path class="cls-6" d="M236.52,192.45l16.84-9.64a4.08,4.08,0,0,0,1.71-3.27v-6c0-1.27-.76-1.85-1.71-1.3l-16.84,9.64a4.11,4.11,0,0,0-1.71,3.28v6C234.81,192.42,235.58,193,236.52,192.45Z"/><path class="cls-4" d="M254.19,172a1.65,1.65,0,0,1,.43,1.25v6a4.14,4.14,0,0,1-1.71,3.28l-16.84,9.64a1.26,1.26,0,0,1-.83.18,1,1,0,0,0,1.28,0l16.84-9.64a4.08,4.08,0,0,0,1.71-3.27v-6C255.07,172.66,254.72,172.13,254.19,172Z"/><path class="cls-2" d="M241.59,185.91l1.54-.89a.89.89,0,0,0,.38-.71v-1.65c0-.28-.17-.4-.38-.29l-1.54.9a.88.88,0,0,0-.38.71v1.65C241.21,185.9,241.38,186,241.59,185.91Z"/><path class="cls-4" d="M246.75,182.93l1.55-.89a.91.91,0,0,0,.37-.71v-1.65c0-.28-.17-.41-.37-.29l-1.55.89a.89.89,0,0,0-.37.72v1.65C246.38,182.92,246.54,183.05,246.75,182.93Z"/><path class="cls-6" d="M236.52,214.2l16.84-9.64a4.08,4.08,0,0,0,1.71-3.27v-6c0-1.27-.76-1.85-1.71-1.3l-16.84,9.64a4.12,4.12,0,0,0-1.71,3.28v6C234.81,214.17,235.58,214.75,236.52,214.2Z"/><path class="cls-4" d="M254.19,193.79a1.65,1.65,0,0,1,.43,1.25v6a4.14,4.14,0,0,1-1.71,3.28L236.07,214a1.26,1.26,0,0,1-.83.18,1,1,0,0,0,1.28,0l16.84-9.64a4.08,4.08,0,0,0,1.71-3.27v-6C255.07,194.41,254.72,193.88,254.19,193.79Z"/><path class="cls-2" d="M241.59,207.66l1.54-.89a.89.89,0,0,0,.38-.71v-1.65c0-.28-.17-.4-.38-.28l-1.54.89a.89.89,0,0,0-.38.71v1.65C241.21,207.66,241.38,207.78,241.59,207.66Z"/><path class="cls-4" d="M246.75,204.68l1.55-.89a.91.91,0,0,0,.37-.71v-1.65c0-.28-.17-.41-.37-.29l-1.55.9a.85.85,0,0,0-.37.71v1.65C246.38,204.67,246.54,204.8,246.75,204.68Z"/><path class="cls-4" d="M245.61,215.79l1.54-.9a.85.85,0,0,0,.37-.71v-1.65c0-.27-.16-.4-.37-.28l-1.54.89a.89.89,0,0,0-.38.71v1.65C245.23,215.78,245.4,215.91,245.61,215.79Z"/><path class="cls-6" d="M236.52,170.7l16.84-9.64a4.08,4.08,0,0,0,1.71-3.27v-6c0-1.27-.76-1.85-1.71-1.3l-16.84,9.64a4.1,4.1,0,0,0-1.71,3.27v6C234.81,170.67,235.58,171.25,236.52,170.7Z"/><path class="cls-4" d="M254.19,150.29a1.65,1.65,0,0,1,.43,1.25v6a4.14,4.14,0,0,1-1.71,3.28l-16.84,9.64a1.26,1.26,0,0,1-.83.18,1,1,0,0,0,1.28,0l16.84-9.64a4.08,4.08,0,0,0,1.71-3.27v-6C255.07,150.91,254.72,150.38,254.19,150.29Z"/><path class="cls-2" d="M241.59,164.16l1.54-.89a.89.89,0,0,0,.38-.71v-1.65c0-.28-.17-.41-.38-.29l-1.54.89a.9.9,0,0,0-.38.72v1.65C241.21,164.15,241.38,164.28,241.59,164.16Z"/><path class="cls-4" d="M246.75,161.18l1.55-.89a.92.92,0,0,0,.37-.72v-1.65c0-.27-.17-.4-.37-.28l-1.55.89a.89.89,0,0,0-.37.72v1.65C246.38,161.17,246.54,161.3,246.75,161.18Z"/><path class="cls-1" d="M221.94,142.79l-38.83-22.43a3.75,3.75,0,0,1-1.58-3V110c0-1.16.71-1.69,1.58-1.19l38.83,22.42a3.79,3.79,0,0,1,1.58,3v7.41C223.52,142.76,222.81,143.29,221.94,142.79Z"/><path class="cls-8" d="M220.83,140.19l-36.61-21.13a1.93,1.93,0,0,1-.8-1.53V112c0-.59.36-.86.8-.6l36.61,21.13a1.93,1.93,0,0,1,.8,1.53v5.57C221.63,140.18,221.27,140.45,220.83,140.19Z"/><path class="cls-3" d="M191.85,120.65l-5.46-3.16a1.86,1.86,0,0,1-.78-1.48h0c0-.57.35-.83.78-.59l5.46,3.16a1.84,1.84,0,0,1,.78,1.48h0C192.63,120.63,192.28,120.89,191.85,120.65Z"/><path class="cls-6" d="M196.51,122.3c0,.57-.41.8-.9.52a2,2,0,0,1-.9-1.55c0-.58.41-.81.9-.52A2,2,0,0,1,196.51,122.3Z"/><path class="cls-6" d="M199.66,124.12c0,.57-.4.81-.89.52a2,2,0,0,1-.9-1.55c0-.57.4-.8.9-.52A2,2,0,0,1,199.66,124.12Z"/><path class="cls-3" d="M202.82,126c0,.57-.4.8-.89.51a2,2,0,0,1-.9-1.55c0-.57.4-.8.9-.51A2,2,0,0,1,202.82,126Z"/><path class="cls-6" d="M206,127.77c0,.57-.4.8-.89.52a2,2,0,0,1-.9-1.55c0-.57.4-.81.9-.52A2,2,0,0,1,206,127.77Z"/><path class="cls-6" d="M219.29,137.09,217.45,136a1.19,1.19,0,0,1-.5-.95v-2c0-.37.22-.53.5-.38l1.84,1.07a1.19,1.19,0,0,1,.5,1v1.94C219.79,137.08,219.56,137.25,219.29,137.09Z"/><path class="cls-1" d="M221.94,155.85l-38.83-22.43a3.75,3.75,0,0,1-1.58-3V123c0-1.16.71-1.69,1.58-1.19l38.83,22.42a3.79,3.79,0,0,1,1.58,3v7.41C223.52,155.82,222.81,156.35,221.94,155.85Z"/><path class="cls-8" d="M220.83,153.25l-36.61-21.14a1.9,1.9,0,0,1-.8-1.52V125c0-.59.36-.86.8-.6l36.61,21.13a1.93,1.93,0,0,1,.8,1.53v5.57C221.63,153.23,221.27,153.5,220.83,153.25Z"/><path class="cls-3" d="M191.85,133.7l-5.46-3.15a1.86,1.86,0,0,1-.78-1.48h0c0-.57.35-.83.78-.59l5.46,3.16a1.84,1.84,0,0,1,.78,1.48h0C192.63,133.69,192.28,134,191.85,133.7Z"/><path class="cls-4" d="M196.51,135.36c0,.57-.41.8-.9.52a2,2,0,0,1-.9-1.56c0-.57.41-.8.9-.51A2,2,0,0,1,196.51,135.36Z"/><path class="cls-6" d="M199.66,137.18c0,.57-.4.8-.89.52a2,2,0,0,1-.9-1.55c0-.57.4-.8.9-.52A2,2,0,0,1,199.66,137.18Z"/><path class="cls-3" d="M202.82,139c0,.57-.4.8-.89.51A2,2,0,0,1,201,138c0-.57.4-.8.9-.51A2,2,0,0,1,202.82,139Z"/><path class="cls-6" d="M206,140.83c0,.57-.4.8-.89.52a2,2,0,0,1-.9-1.55c0-.58.4-.81.9-.52A2,2,0,0,1,206,140.83Z"/><path class="cls-6" d="M219.29,150.15l-1.84-1.06a1.19,1.19,0,0,1-.5-1v-1.95c0-.37.22-.54.5-.38l1.84,1.07a1.19,1.19,0,0,1,.5,1v1.94C219.79,150.14,219.56,150.31,219.29,150.15Z"/><path class="cls-1" d="M221.94,168.91l-38.83-22.43a3.77,3.77,0,0,1-1.58-3v-7.41c0-1.16.71-1.69,1.58-1.19l38.83,22.42a3.77,3.77,0,0,1,1.58,3v7.41C223.52,168.88,222.81,169.41,221.94,168.91Z"/><path class="cls-8" d="M220.83,166.31l-36.61-21.14a1.9,1.9,0,0,1-.8-1.52v-5.57c0-.59.36-.86.8-.6l36.61,21.13a1.93,1.93,0,0,1,.8,1.53v5.57C221.63,166.29,221.27,166.56,220.83,166.31Z"/><path class="cls-3" d="M191.85,146.76l-5.46-3.15a1.86,1.86,0,0,1-.78-1.48h0c0-.57.35-.84.78-.59l5.46,3.16a1.84,1.84,0,0,1,.78,1.48h0C192.63,146.75,192.28,147,191.85,146.76Z"/><path class="cls-4" d="M196.51,148.42c0,.57-.41.8-.9.51a2,2,0,0,1-.9-1.55c0-.57.41-.8.9-.51A2,2,0,0,1,196.51,148.42Z"/><path class="cls-6" d="M199.66,150.24c0,.57-.4.8-.89.52a2,2,0,0,1-.9-1.55c0-.57.4-.8.9-.52A2,2,0,0,1,199.66,150.24Z"/><path class="cls-3" d="M202.82,152.07c0,.57-.4.8-.89.51A2,2,0,0,1,201,151c0-.57.4-.8.9-.52A2,2,0,0,1,202.82,152.07Z"/><path class="cls-6" d="M206,153.89c0,.57-.4.8-.89.52a2,2,0,0,1-.9-1.55c0-.58.4-.81.9-.52A2,2,0,0,1,206,153.89Z"/><path class="cls-6" d="M219.29,163.21l-1.84-1.06a1.19,1.19,0,0,1-.5-1v-1.95c0-.37.22-.54.5-.38l1.84,1.06a1.22,1.22,0,0,1,.5,1v1.94C219.79,163.2,219.56,163.37,219.29,163.21Z"/><path class="cls-1" d="M221.94,182l-38.83-22.43a3.77,3.77,0,0,1-1.58-3v-7.4c0-1.16.71-1.69,1.58-1.19l38.83,22.42a3.77,3.77,0,0,1,1.58,3v7.41C223.52,181.93,222.81,182.47,221.94,182Z"/><path class="cls-8" d="M220.83,179.37l-36.61-21.14a1.9,1.9,0,0,1-.8-1.52v-5.57c0-.59.36-.86.8-.6l36.61,21.13a1.93,1.93,0,0,1,.8,1.53v5.56C221.63,179.35,221.27,179.62,220.83,179.37Z"/><path class="cls-3" d="M191.85,159.82l-5.46-3.15a1.86,1.86,0,0,1-.78-1.48h0c0-.57.35-.84.78-.59l5.46,3.16a1.84,1.84,0,0,1,.78,1.48h0C192.63,159.81,192.28,160.07,191.85,159.82Z"/><path class="cls-6" d="M196.51,161.48c0,.57-.41.8-.9.51a2,2,0,0,1-.9-1.55c0-.57.41-.8.9-.51A2,2,0,0,1,196.51,161.48Z"/><path class="cls-6" d="M199.66,163.3c0,.57-.4.8-.89.52a2,2,0,0,1-.9-1.55c0-.57.4-.81.9-.52A2,2,0,0,1,199.66,163.3Z"/><path class="cls-3" d="M202.82,165.12c0,.58-.4.81-.89.52a2,2,0,0,1-.9-1.55c0-.57.4-.8.9-.52A2,2,0,0,1,202.82,165.12Z"/><path class="cls-6" d="M206,167c0,.57-.4.8-.89.52a2,2,0,0,1-.9-1.56c0-.57.4-.8.9-.51A2,2,0,0,1,206,167Z"/><path class="cls-3" d="M219.29,176.27l-1.84-1.06a1.19,1.19,0,0,1-.5-1v-1.94c0-.37.22-.54.5-.38l1.84,1.06a1.22,1.22,0,0,1,.5,1v1.94C219.79,176.26,219.56,176.43,219.29,176.27Z"/><path class="cls-1" d="M221.94,195,183.11,172.6a3.77,3.77,0,0,1-1.58-3v-7.4c0-1.16.71-1.69,1.58-1.19l38.83,22.42a3.77,3.77,0,0,1,1.58,3v7.4C223.52,195,222.81,195.53,221.94,195Z"/><path class="cls-8" d="M220.83,192.43l-36.61-21.14a1.91,1.91,0,0,1-.8-1.52V164.2c0-.59.36-.86.8-.6l36.61,21.13a1.93,1.93,0,0,1,.8,1.53v5.56C221.63,192.41,221.27,192.68,220.83,192.43Z"/><path class="cls-3" d="M191.85,172.88l-5.46-3.15a1.86,1.86,0,0,1-.78-1.48h0c0-.57.35-.84.78-.59l5.46,3.15a1.88,1.88,0,0,1,.78,1.49h0C192.63,172.87,192.28,173.13,191.85,172.88Z"/><path class="cls-6" d="M196.51,174.54c0,.57-.41.8-.9.51a2,2,0,0,1-.9-1.55c0-.57.41-.8.9-.51A2,2,0,0,1,196.51,174.54Z"/><path class="cls-4" d="M199.66,176.36c0,.57-.4.8-.89.52a2,2,0,0,1-.9-1.55c0-.57.4-.81.9-.52A2,2,0,0,1,199.66,176.36Z"/><path class="cls-3" d="M202.82,178.18c0,.58-.4.81-.89.52a2,2,0,0,1-.9-1.55c0-.57.4-.8.9-.52A2,2,0,0,1,202.82,178.18Z"/><path class="cls-4" d="M206,180c0,.57-.4.8-.89.51a2,2,0,0,1-.9-1.55c0-.57.4-.8.9-.51A2,2,0,0,1,206,180Z"/><path class="cls-3" d="M219.29,189.33l-1.84-1.06a1.19,1.19,0,0,1-.5-1v-1.94c0-.37.22-.54.5-.38l1.84,1.06a1.22,1.22,0,0,1,.5.95V189C219.79,189.32,219.56,189.49,219.29,189.33Z"/><path class="cls-1" d="M221.94,208.08l-38.83-22.42a3.77,3.77,0,0,1-1.58-3v-7.4c0-1.16.71-1.69,1.58-1.19l38.83,22.42a3.77,3.77,0,0,1,1.58,3v7.4C223.52,208.05,222.81,208.59,221.94,208.08Z"/><path class="cls-8" d="M220.83,205.49l-36.61-21.14a1.91,1.91,0,0,1-.8-1.52v-5.57c0-.59.36-.86.8-.61l36.61,21.14a1.91,1.91,0,0,1,.8,1.53v5.56C221.63,205.47,221.27,205.74,220.83,205.49Z"/><path class="cls-3" d="M191.85,185.94l-5.46-3.15a1.86,1.86,0,0,1-.78-1.48h0c0-.58.35-.84.78-.59l5.46,3.15a1.86,1.86,0,0,1,.78,1.49h0C192.63,185.93,192.28,186.19,191.85,185.94Z"/><path class="cls-6" d="M196.51,187.6c0,.57-.41.8-.9.51a2,2,0,0,1-.9-1.55c0-.57.41-.8.9-.52A2,2,0,0,1,196.51,187.6Z"/><path class="cls-6" d="M199.66,189.42c0,.57-.4.8-.89.52a2,2,0,0,1-.9-1.55c0-.58.4-.81.9-.52A2,2,0,0,1,199.66,189.42Z"/><path class="cls-3" d="M202.82,191.24c0,.57-.4.81-.89.52a2,2,0,0,1-.9-1.55c0-.57.4-.8.9-.52A2,2,0,0,1,202.82,191.24Z"/><path class="cls-6" d="M206,193.07c0,.57-.4.8-.89.51a2,2,0,0,1-.9-1.55c0-.57.4-.8.9-.51A2,2,0,0,1,206,193.07Z"/><path class="cls-6" d="M219.29,202.39l-1.84-1.07a1.16,1.16,0,0,1-.5-.95v-1.94c0-.37.22-.54.5-.38l1.84,1.06a1.22,1.22,0,0,1,.5.95V202C219.79,202.38,219.56,202.55,219.29,202.39Z"/><path class="cls-1" d="M221.94,221.14l-38.83-22.42a3.77,3.77,0,0,1-1.58-3v-7.4c0-1.16.71-1.69,1.58-1.19l38.83,22.42a3.77,3.77,0,0,1,1.58,3V220C223.52,221.11,222.81,221.65,221.94,221.14Z"/><path class="cls-8" d="M220.83,218.55l-36.61-21.14a1.91,1.91,0,0,1-.8-1.52v-5.57c0-.59.36-.86.8-.61l36.61,21.14a1.91,1.91,0,0,1,.8,1.53v5.56C221.63,218.53,221.27,218.8,220.83,218.55Z"/><path class="cls-3" d="M191.85,199l-5.46-3.15a1.86,1.86,0,0,1-.78-1.48h0c0-.58.35-.84.78-.59l5.46,3.15a1.86,1.86,0,0,1,.78,1.48h0C192.63,199,192.28,199.25,191.85,199Z"/><path class="cls-4" d="M197.5,201.36c0,1.08-.75,1.52-1.69,1a3.75,3.75,0,0,1-1.69-2.93c0-1.08.76-1.52,1.69-1A3.72,3.72,0,0,1,197.5,201.36Z"/><path class="cls-6" d="M204.05,205.19c0,.57-.4.8-.9.52a2,2,0,0,1-.89-1.55c0-.57.4-.81.89-.52A2,2,0,0,1,204.05,205.19Z"/><path class="cls-3" d="M207.21,207c0,.58-.4.81-.9.52a2,2,0,0,1-.89-1.55c0-.57.4-.8.89-.52A2,2,0,0,1,207.21,207Z"/><path class="cls-6" d="M210.36,208.84c0,.57-.4.8-.89.51a2,2,0,0,1-.9-1.55c0-.57.4-.8.9-.51A2,2,0,0,1,210.36,208.84Z"/><path class="cls-3" d="M219.29,215.45l-1.84-1.07a1.16,1.16,0,0,1-.5-.95v-1.94c0-.37.22-.54.5-.38l1.84,1.06a1.22,1.22,0,0,1,.5,1v1.95C219.79,215.44,219.56,215.6,219.29,215.45Z"/><path class="cls-5" d="M88.22,290,1.65,240c-2.45-1.41-2.14-3.88.69-5.52l58.94-34c2.83-1.64,7.11-1.81,9.56-.4l86.56,50c2.45,1.41,2.14,3.88-.69,5.51l-58.94,34C94.94,291.24,90.67,291.42,88.22,290Z"/><path class="cls-6" d="M177.68,161.54l-86.57-50a3.49,3.49,0,0,0-2.93-.36h0l-.15.06h0l-3.13,1.2,2.81,1.37a.83.83,0,0,0,0,.15l-14.1,64.19c-.71,3.21.7,7,3.15,8.37l84.49,48.78-.31,3.58,3.42-1.33a4.78,4.78,0,0,0,2.45-3.48l14.1-64.18C181.54,166.71,180.12,163,177.68,161.54Z"/><path class="cls-2" d="M177.68,161.54l-86.57-50a3.49,3.49,0,0,0-2.93-.36h0l-.15.06h0l-3.13,1.2,2.81,1.37a.83.83,0,0,0,0,.15l-9.3,42.3,42.36,33L180.41,165A6.73,6.73,0,0,0,177.68,161.54Z"/><path class="cls-9" d="M174.41,171.41,181,168.6a8.25,8.25,0,0,0-2.67-6.6l-10.43,4.39Z"/><path class="cls-3" d="M157.86,238.57l-86.57-50c-2.45-1.41-3.86-5.16-3.15-8.38L82.24,116c.7-3.21,3.26-4.67,5.71-3.25l86.56,50c2.45,1.42,3.86,5.17,3.16,8.38l-14.1,64.18C162.86,238.52,160.31,240,157.86,238.57Z"/><path class="cls-4" d="M175.34,162.45l-86.56-50a3.45,3.45,0,0,0-3.41-.15,3.6,3.6,0,0,1,2.58.46l86.56,50c2.45,1.42,3.86,5.17,3.16,8.38l-14.1,64.18a4.9,4.9,0,0,1-2.3,3.4c1.46-.31,2.68-1.64,3.13-3.7l14.1-64.18C179.2,167.61,177.79,163.86,175.34,162.45Z"/><path class="cls-4" d="M156,233.79l-81.41-47c-2.24-1.29-3.54-4.72-2.89-7.66l12.9-58.73c.65-2.94,3-4.28,5.23-3l81.41,47c2.24,1.29,3.54,4.72,2.89,7.66l-12.9,58.73C160.56,233.75,158.22,235.09,156,233.79Z"/><path class="cls-6" d="M156,233.79l-81.41-47c-2.24-1.29-3.54-4.72-2.89-7.66l12.9-58.73c.65-2.94,3-4.28,5.23-3l81.41,47c2.24,1.29,3.54,4.72,2.89,7.66l-12.9,58.73C160.56,233.75,158.22,235.09,156,233.79Z"/><path class="cls-1" d="M156.69,233.5l-81.41-47c-2.24-1.29-3.54-4.72-2.89-7.66l12.9-58.73a4.51,4.51,0,0,1,2-3.09,4.15,4.15,0,0,0-2.76,3.38l-12.9,58.73c-.65,2.94.65,6.37,2.89,7.66l81.41,47a3.14,3.14,0,0,0,3.18.12A3.28,3.28,0,0,1,156.69,233.5Z"/><path class="cls-6" d="M159.05,240.74l-11.83-1.56-76.38-44.1c-2.45-1.41-6.73-1.23-9.56.4L7.16,226.72,0,225.77v4.06H0a2.79,2.79,0,0,0,1.64,2.51l86.57,50c2.45,1.41,6.72,1.23,9.55-.4l58.94-34c1.6-.92,2.39-2.1,2.34-3.21h0Z"/><path class="cls-2" d="M101.66,212.88l-5.43-3.13H36.57l-29.41,17L0,225.77v4.06H0a2.79,2.79,0,0,0,1.64,2.51l86.57,50a9,9,0,0,0,4.93.92Z"/><path class="cls-1" d="M3.18,226.19,0,225.77v4.06H0a2.79,2.79,0,0,0,1.64,2.51l1.53.88Z"/><path class="cls-9" d="M89.09,282.72a11.11,11.11,0,0,0,8.12-.5v-9.06H89.09Z"/><path class="cls-3" d="M88.22,278.26l-86.57-50c-2.45-1.41-2.14-3.88.69-5.51l58.94-34c2.83-1.63,7.11-1.81,9.56-.4l86.56,50c2.45,1.41,2.14,3.88-.69,5.52l-58.94,34C94.94,279.5,90.67,279.68,88.22,278.26Z"/><path class="cls-4" d="M156.71,242.36l-58.94,34c-2.83,1.64-7.1,1.81-9.55.4l-86.57-50a3.23,3.23,0,0,1-1.52-1.66c-.38,1.15.11,2.33,1.52,3.14l86.57,50c2.45,1.42,6.72,1.24,9.55-.39l58.94-34c1.91-1.1,2.66-2.58,2.21-3.85A4.55,4.55,0,0,1,156.71,242.36Z"/><path class="cls-1" d="M38.47,211.74l-3.92-2.26c-.31-.18-.27-.5.09-.71l4.62-2.67a1.37,1.37,0,0,1,1.23,0l3.92,2.26c.31.18.27.5-.09.71l-4.62,2.67A1.37,1.37,0,0,1,38.47,211.74Z"/><path class="cls-1" d="M44.52,215.23,40.6,213c-.31-.18-.27-.5.09-.71l4.62-2.67a1.37,1.37,0,0,1,1.23-.05l3.92,2.26c.31.18.27.5-.09.71l-4.62,2.67A1.37,1.37,0,0,1,44.52,215.23Z"/><path class="cls-1" d="M50.57,218.72l-3.92-2.26c-.31-.18-.27-.5.09-.71l4.62-2.67a1.37,1.37,0,0,1,1.23-.05l3.92,2.26c.31.19.27.5-.09.71l-4.63,2.67A1.35,1.35,0,0,1,50.57,218.72Z"/><path class="cls-1" d="M58.93,215.84,55,213.58c-.32-.18-.28-.5.08-.71L59,210.63a1.37,1.37,0,0,1,1.23,0l3.92,2.26c.31.18.27.5-.09.71l-3.88,2.24A1.37,1.37,0,0,1,58.93,215.84Z"/><path class="cls-1" d="M65,219.33l-3.92-2.26c-.31-.18-.27-.5.09-.71L65,214.12a1.37,1.37,0,0,1,1.23-.05l3.92,2.26c.31.18.27.5-.09.71l-3.88,2.24A1.37,1.37,0,0,1,65,219.33Z"/><path class="cls-1" d="M71,222.82l-3.92-2.26c-.31-.18-.27-.5.09-.71l3.88-2.24a1.37,1.37,0,0,1,1.23-.05l3.92,2.26c.31.18.27.5-.09.71l-3.88,2.24A1.37,1.37,0,0,1,71,222.82Z"/><path class="cls-1" d="M77.08,226.31l-3.92-2.26c-.31-.18-.27-.49.09-.7l3.88-2.25a1.41,1.41,0,0,1,1.23,0l3.91,2.27c.32.18.28.49-.08.7l-3.88,2.24A1.34,1.34,0,0,1,77.08,226.31Z"/><path class="cls-1" d="M83.13,229.81l-3.92-2.26c-.31-.19-.28-.5.09-.71l3.88-2.24a1.34,1.34,0,0,1,1.23,0l3.91,2.26c.32.18.28.5-.09.71l-3.88,2.24A1.35,1.35,0,0,1,83.13,229.81Z"/><path class="cls-1" d="M89.18,233.3,85.26,231c-.32-.18-.28-.5.09-.71l3.88-2.24a1.35,1.35,0,0,1,1.22-.05l3.92,2.26c.32.18.28.5-.09.71l-3.88,2.24A1.35,1.35,0,0,1,89.18,233.3Z"/><path class="cls-1" d="M95.22,236.79l-3.91-2.26c-.32-.18-.28-.5.09-.71l3.88-2.24a1.35,1.35,0,0,1,1.22-.05l3.92,2.26c.31.18.27.5-.09.71l-3.88,2.24A1.37,1.37,0,0,1,95.22,236.79Z"/><path class="cls-1" d="M101.27,240.28,97.36,238c-.32-.18-.28-.5.08-.71l3.88-2.24a1.37,1.37,0,0,1,1.23,0l3.92,2.26c.31.19.27.5-.09.71l-3.88,2.24A1.34,1.34,0,0,1,101.27,240.28Z"/><path class="cls-1" d="M107.32,243.78l-3.92-2.27c-.31-.18-.27-.49.09-.7l3.88-2.24a1.38,1.38,0,0,1,1.23-.06l3.92,2.27c.31.18.27.49-.09.7l-3.88,2.24A1.38,1.38,0,0,1,107.32,243.78Z"/><path class="cls-1" d="M113.37,247.27,109.45,245c-.31-.19-.27-.5.09-.71l3.88-2.24a1.37,1.37,0,0,1,1.23-.05l3.92,2.26c.31.18.27.5-.09.71l-3.88,2.24A1.37,1.37,0,0,1,113.37,247.27Z"/><path class="cls-1" d="M67.84,214.19l-3.91-2.27c-.32-.18-.28-.49.09-.7L67.9,209a1.36,1.36,0,0,1,1.22-.06L73,211.19c.31.18.28.49-.09.7l-3.88,2.24A1.38,1.38,0,0,1,67.84,214.19Z"/><path class="cls-1" d="M61.71,210.64l-3.92-2.26c-.32-.18-.28-.5.09-.71l3.88-2.24a1.35,1.35,0,0,1,1.22-.05l3.92,2.26c.32.18.28.5-.09.71l-3.88,2.24A1.35,1.35,0,0,1,61.71,210.64Z"/><path class="cls-1" d="M55.56,207.09l-8.44-4.87c-.31-.18-.27-.5.09-.71l3.88-2.24a1.37,1.37,0,0,1,1.23-.05l8.43,4.87c.32.18.28.5-.09.71L56.78,207A1.35,1.35,0,0,1,55.56,207.09Z"/><path class="cls-1" d="M59.86,202.77l-6.85-4c-.32-.18-.28-.5.09-.71L57,195.87a1.37,1.37,0,0,1,1.23-.05l6.84,4c.32.19.28.5-.09.71l-3.88,2.24A1.32,1.32,0,0,1,59.86,202.77Z"/><path class="cls-1" d="M73.89,217.68,70,215.42c-.32-.19-.28-.5.08-.71L74,212.47a1.32,1.32,0,0,1,1.22-.05l3.92,2.26c.31.18.27.5-.09.71l-3.88,2.24A1.37,1.37,0,0,1,73.89,217.68Z"/><path class="cls-1" d="M79.94,221.17,76,218.91c-.32-.18-.28-.5.08-.71L80,216a1.37,1.37,0,0,1,1.23-.05l3.92,2.26c.31.18.27.5-.09.71l-3.88,2.24A1.37,1.37,0,0,1,79.94,221.17Z"/><path class="cls-1" d="M86,224.66l-3.92-2.26c-.31-.18-.27-.5.09-.71L86,219.45a1.37,1.37,0,0,1,1.23,0l3.92,2.26c.31.18.27.5-.09.71l-3.88,2.24A1.37,1.37,0,0,1,86,224.66Z"/><path class="cls-1" d="M92,228.15l-3.92-2.26c-.31-.18-.27-.5.09-.71l3.88-2.24a1.37,1.37,0,0,1,1.23-.05l3.91,2.26c.32.19.28.5-.08.71l-3.88,2.24A1.34,1.34,0,0,1,92,228.15Z"/><path class="cls-1" d="M98.09,231.65l-3.92-2.27c-.31-.18-.27-.49.09-.7l3.88-2.24a1.38,1.38,0,0,1,1.23-.06l3.91,2.27c.32.18.28.49-.08.7l-3.89,2.25A1.38,1.38,0,0,1,98.09,231.65Z"/><path class="cls-1" d="M104.14,235.14l-3.92-2.26c-.32-.18-.28-.5.09-.71l3.88-2.24a1.35,1.35,0,0,1,1.22-.05l3.92,2.26c.32.18.28.5-.09.71l-3.88,2.24A1.35,1.35,0,0,1,104.14,235.14Z"/><path class="cls-1" d="M110.18,238.63l-3.91-2.26c-.32-.18-.28-.5.09-.71l3.88-2.24a1.35,1.35,0,0,1,1.22,0l3.92,2.26c.31.18.28.5-.09.71l-3.88,2.24A1.37,1.37,0,0,1,110.18,238.63Z"/><path class="cls-1" d="M116.23,242.12l-3.91-2.26c-.32-.18-.28-.5.08-.71l3.89-2.24a1.35,1.35,0,0,1,1.22,0l3.92,2.26c.31.18.27.5-.09.71l-3.88,2.24A1.37,1.37,0,0,1,116.23,242.12Z"/><path class="cls-1" d="M122.28,245.61l-3.92-2.26c-.31-.18-.27-.5.09-.71l3.88-2.24a1.37,1.37,0,0,1,1.23-.05l3.92,2.26c.31.19.27.5-.09.71l-3.88,2.24A1.34,1.34,0,0,1,122.28,245.61Z"/><path class="cls-1" d="M133,251.82l-8.54-4.93c-.32-.18-.28-.5.09-.71l3.88-2.24a1.35,1.35,0,0,1,1.22-.05l8.55,4.93c.31.18.28.5-.09.71l-3.88,2.24A1.37,1.37,0,0,1,133,251.82Z"/><path class="cls-1" d="M144.81,245l-7.21-4.16c-.32-.18-.28-.5.09-.71l3.88-2.24a1.35,1.35,0,0,1,1.22,0L150,242c.31.19.27.5-.09.71L146,245A1.34,1.34,0,0,1,144.81,245Z"/><path class="cls-1" d="M84.49,217l-3.92-2.26c-.32-.18-.28-.5.09-.71l3.88-2.24a1.35,1.35,0,0,1,1.22-.05L89.68,214c.32.19.28.5-.09.71l-3.88,2.24A1.32,1.32,0,0,1,84.49,217Z"/><path class="cls-1" d="M78.29,213.42l-3.92-2.27c-.31-.18-.28-.49.09-.7l3.88-2.25a1.41,1.41,0,0,1,1.23,0l3.91,2.27c.32.18.28.49-.09.7l-3.88,2.24A1.36,1.36,0,0,1,78.29,213.42Z"/><path class="cls-1" d="M72.09,209.84l-3.92-2.27c-.31-.18-.27-.49.09-.7l3.88-2.24a1.34,1.34,0,0,1,1.23,0l3.91,2.26c.32.18.28.5-.08.7l-3.89,2.25A1.35,1.35,0,0,1,72.09,209.84Z"/><path class="cls-1" d="M65.89,206.26,62,204c-.31-.19-.27-.5.09-.71l3.88-2.24a1.34,1.34,0,0,1,1.23-.05l3.91,2.26c.32.18.28.5-.08.71l-3.88,2.24A1.37,1.37,0,0,1,65.89,206.26Z"/><path class="cls-1" d="M90.53,220.49l-3.91-2.26c-.32-.19-.28-.5.09-.71l3.88-2.24a1.32,1.32,0,0,1,1.22-.05l3.92,2.26c.31.18.27.5-.09.7l-3.88,2.25A1.37,1.37,0,0,1,90.53,220.49Z"/><path class="cls-1" d="M96.58,224l-3.91-2.26c-.32-.18-.28-.5.08-.71l3.88-2.24a1.37,1.37,0,0,1,1.23-.05l3.92,2.26c.31.18.27.5-.09.71l-3.88,2.24A1.37,1.37,0,0,1,96.58,224Z"/><path class="cls-1" d="M102.63,227.47l-3.92-2.26c-.31-.18-.27-.5.09-.71l3.88-2.24a1.37,1.37,0,0,1,1.23,0l3.92,2.26c.31.18.27.5-.09.71l-3.88,2.24A1.37,1.37,0,0,1,102.63,227.47Z"/><path class="cls-1" d="M108.68,231l-3.92-2.26c-.31-.18-.27-.5.09-.71l3.88-2.24a1.37,1.37,0,0,1,1.23-.05l3.92,2.26c.31.18.27.5-.09.71l-3.88,2.24A1.37,1.37,0,0,1,108.68,231Z"/><path class="cls-1" d="M114.73,234.45l-3.92-2.26c-.31-.18-.27-.5.09-.7l3.88-2.25a1.37,1.37,0,0,1,1.23-.05l3.91,2.27c.32.18.28.49-.08.7L116,234.4A1.34,1.34,0,0,1,114.73,234.45Z"/><path class="cls-1" d="M120.78,238l-3.92-2.26c-.31-.19-.28-.5.09-.71l3.88-2.24a1.34,1.34,0,0,1,1.23-.05L126,235c.32.18.28.5-.09.71L122,237.9A1.35,1.35,0,0,1,120.78,238Z"/><path class="cls-1" d="M126.83,241.44l-3.92-2.26c-.32-.18-.28-.5.09-.71l3.88-2.24a1.35,1.35,0,0,1,1.22,0l3.92,2.26c.32.18.28.5-.09.71l-3.88,2.24A1.35,1.35,0,0,1,126.83,241.44Z"/><path class="cls-1" d="M132.87,244.93,129,242.67c-.32-.18-.28-.5.09-.71l3.88-2.24a1.35,1.35,0,0,1,1.22-.05l3.92,2.26c.31.18.27.5-.09.71l-3.88,2.24A1.37,1.37,0,0,1,132.87,244.93Z"/><path class="cls-1" d="M138.92,248.42,135,246.16c-.32-.18-.28-.5.08-.71l3.88-2.24a1.37,1.37,0,0,1,1.23-.05l3.92,2.26c.31.19.27.5-.09.71l-3.88,2.24A1.37,1.37,0,0,1,138.92,248.42Z"/><path class="cls-1" d="M81.3,208.36l-3.92-2.26c-.31-.19-.27-.5.09-.71l3.88-2.24a1.34,1.34,0,0,1,1.23-.05l3.92,2.26c.31.18.27.5-.09.71l-3.88,2.24A1.37,1.37,0,0,1,81.3,208.36Z"/><path class="cls-1" d="M75.28,204.88l-3.91-2.26c-.32-.18-.28-.5.08-.71l3.88-2.24a1.37,1.37,0,0,1,1.23,0l3.92,2.26c.31.18.27.5-.09.71l-3.88,2.24A1.37,1.37,0,0,1,75.28,204.88Z"/><path class="cls-1" d="M69.26,201.41l-3.91-2.26c-.32-.19-.28-.5.09-.71l3.88-2.24a1.32,1.32,0,0,1,1.22,0l3.92,2.26c.31.18.27.5-.09.71l-3.88,2.24A1.37,1.37,0,0,1,69.26,201.41Z"/><path class="cls-1" d="M63.25,197.93l-3.92-2.26c-.32-.18-.28-.5.09-.71l3.88-2.24a1.35,1.35,0,0,1,1.22-.05l3.92,2.26c.32.18.28.5-.09.71l-3.88,2.24A1.35,1.35,0,0,1,63.25,197.93Z"/><path class="cls-1" d="M69.43,194.36l-3.91-2.26c-.32-.18-.28-.5.09-.71l1.28-.74a1.37,1.37,0,0,1,1.23-.05L72,192.86c.32.18.28.5-.09.71l-1.28.74A1.37,1.37,0,0,1,69.43,194.36Z"/><path class="cls-1" d="M77.29,198.89l-3.92-2.26c-.31-.18-.27-.5.09-.71l1.28-.74a1.37,1.37,0,0,1,1.23-.05l3.92,2.26c.31.19.27.5-.09.71l-1.29.74A1.32,1.32,0,0,1,77.29,198.89Z"/><path class="cls-1" d="M83.28,202.35l-3.92-2.26c-.31-.18-.27-.5.09-.71l1.29-.74a1.35,1.35,0,0,1,1.22,0l3.92,2.26c.31.19.27.5-.09.71l-1.28.74A1.34,1.34,0,0,1,83.28,202.35Z"/><path class="cls-1" d="M89.27,205.81l-3.91-2.26c-.32-.18-.28-.5.09-.71l1.28-.74a1.37,1.37,0,0,1,1.23,0l3.91,2.26c.32.19.28.5-.09.71l-1.28.74A1.34,1.34,0,0,1,89.27,205.81Z"/><path class="cls-1" d="M95.27,209.27,91.35,207c-.31-.18-.27-.5.09-.7l1.28-.75a1.37,1.37,0,0,1,1.23-.05l3.92,2.26c.31.19.27.5-.09.71l-1.28.74A1.34,1.34,0,0,1,95.27,209.27Z"/><path class="cls-1" d="M128.73,228.59l-3.92-2.26c-.31-.18-.27-.5.09-.71l1.28-.74a1.37,1.37,0,0,1,1.23,0l3.92,2.26c.31.18.27.5-.09.71l-1.28.74A1.37,1.37,0,0,1,128.73,228.59Z"/><path class="cls-1" d="M134.72,232.05l-3.92-2.26c-.31-.18-.27-.5.09-.71l1.29-.74a1.35,1.35,0,0,1,1.22-.05l3.92,2.26c.31.18.27.5-.09.71L136,232A1.37,1.37,0,0,1,134.72,232.05Z"/><path class="cls-1" d="M140.71,235.51l-3.91-2.26c-.32-.18-.28-.5.09-.71l1.28-.74a1.37,1.37,0,0,1,1.23-.05l3.91,2.26c.32.19.28.5-.09.71l-1.28.74A1.37,1.37,0,0,1,140.71,235.51Z"/><path class="cls-1" d="M146.71,239l-3.92-2.26c-.31-.18-.27-.5.09-.71l1.28-.74a1.37,1.37,0,0,1,1.23,0l3.92,2.26c.31.19.27.5-.09.71l-1.28.74A1.34,1.34,0,0,1,146.71,239Z"/><path class="cls-1" d="M87.35,211.85l-3.92-2.26c-.31-.18-.27-.5.09-.71l3.88-2.24a1.37,1.37,0,0,1,1.23,0l3.91,2.26c.32.18.28.5-.08.71l-3.88,2.24A1.37,1.37,0,0,1,87.35,211.85Z"/><path class="cls-1" d="M93.4,215.34l-3.92-2.26c-.31-.18-.27-.5.09-.71l3.88-2.24a1.37,1.37,0,0,1,1.23,0l3.91,2.26c.32.18.28.5-.08.71l-3.89,2.24A1.35,1.35,0,0,1,93.4,215.34Z"/><path class="cls-1" d="M99.45,218.83l-3.92-2.26c-.32-.18-.28-.5.09-.71l3.88-2.24a1.37,1.37,0,0,1,1.23-.05l3.91,2.26c.32.18.28.5-.09.71l-3.88,2.24A1.35,1.35,0,0,1,99.45,218.83Z"/><path class="cls-1" d="M105.49,222.33l-3.91-2.27c-.32-.18-.28-.49.09-.7l3.88-2.25a1.38,1.38,0,0,1,1.22-.05l3.92,2.27c.31.18.28.49-.09.7l-3.88,2.24A1.38,1.38,0,0,1,105.49,222.33Z"/><path class="cls-1" d="M111.54,225.82l-3.91-2.26c-.32-.19-.28-.5.08-.71l3.89-2.24a1.32,1.32,0,0,1,1.22-.05l3.92,2.26c.31.18.27.5-.09.71l-3.88,2.24A1.37,1.37,0,0,1,111.54,225.82Z"/><path class="cls-1" d="M117.59,229.31l-3.91-2.26c-.32-.18-.28-.5.08-.71l3.88-2.24a1.37,1.37,0,0,1,1.23,0l3.92,2.26c.31.18.27.5-.09.71l-3.88,2.24A1.37,1.37,0,0,1,117.59,229.31Z"/><path class="cls-1" d="M123.64,232.8l-3.92-2.26c-.31-.18-.27-.5.09-.71l3.88-2.24a1.37,1.37,0,0,1,1.23-.05l3.92,2.26c.31.18.27.5-.09.71l-3.88,2.24A1.37,1.37,0,0,1,123.64,232.8Z"/><path class="cls-1" d="M129.69,236.29,125.77,234c-.31-.18-.27-.5.09-.71l3.88-2.24A1.37,1.37,0,0,1,131,231l3.91,2.26c.32.19.28.5-.08.71l-3.88,2.24A1.34,1.34,0,0,1,129.69,236.29Z"/><path class="cls-1" d="M135.74,239.79l-3.92-2.27c-.31-.18-.27-.49.09-.7l3.88-2.24a1.38,1.38,0,0,1,1.23-.06l3.91,2.27c.32.18.28.49-.09.7L137,239.73A1.36,1.36,0,0,1,135.74,239.79Z"/><path class="cls-1" d="M52.77,212.28l-11.54-6.66c-.31-.18-.27-.5.09-.71l3.88-2.24a1.37,1.37,0,0,1,1.23,0L58,209.28c.32.18.28.5-.08.71L54,212.23A1.37,1.37,0,0,1,52.77,212.28Z"/><path class="cls-1" d="M127.08,255.18l-11.54-6.66c-.31-.18-.27-.5.09-.71l3.88-2.24a1.37,1.37,0,0,1,1.23,0l11.53,6.66c.32.18.28.5-.09.71l-3.88,2.24A1.35,1.35,0,0,1,127.08,255.18Z"/><path class="cls-1" d="M102.89,248.93,99,246.67c-.31-.18-.27-.5.09-.71l4.62-2.67a1.37,1.37,0,0,1,1.23,0l3.92,2.26c.31.18.27.5-.09.71l-4.63,2.67A1.35,1.35,0,0,1,102.89,248.93Z"/><path class="cls-1" d="M59,223.57,52.7,220c-.32-.18-.28-.5.09-.7l4.62-2.67a1.34,1.34,0,0,1,1.23-.05l6.26,3.61c.32.18.28.5-.09.71l-4.62,2.67A1.37,1.37,0,0,1,59,223.57Z"/><path class="cls-1" d="M97.06,245.56,90.8,242c-.32-.18-.28-.5.08-.71l4.63-2.67a1.35,1.35,0,0,1,1.22,0l6.27,3.62c.31.18.27.5-.09.71l-4.62,2.66A1.34,1.34,0,0,1,97.06,245.56Z"/><path class="cls-1" d="M67.69,228.61,61.43,225c-.32-.18-.28-.5.08-.71l4.63-2.67a1.35,1.35,0,0,1,1.22-.05l6.27,3.62c.31.18.27.5-.09.71l-4.62,2.67A1.37,1.37,0,0,1,67.69,228.61Z"/><path class="cls-1" d="M67.41,221.59l27.23,15.72a.37.37,0,0,1,0,.71l-4.71,2.72a1.4,1.4,0,0,1-1.23,0L61.47,225Z"/><path class="cls-1" d="M119.79,255.26l4.36,2.52c.26.15.23.41-.07.58l-1.89,1.09a1.11,1.11,0,0,1-1,0L116.82,257c-.25-.15-.22-.41.08-.59l1.89-1.09A1.11,1.11,0,0,1,119.79,255.26Z"/><path class="cls-1" d="M113.69,251.74l4.37,2.52c.25.15.22.41-.08.58l-1.89,1.09a1.11,1.11,0,0,1-1,0l-4.37-2.52c-.25-.14-.22-.4.08-.58l1.89-1.09A1.11,1.11,0,0,1,113.69,251.74Z"/><path class="cls-1" d="M107.64,248.25l4.37,2.52c.26.15.22.41-.07.58l-1.9,1.09a1.11,1.11,0,0,1-1,0L104.68,250c-.26-.15-.23-.41.07-.58l1.89-1.09A1.11,1.11,0,0,1,107.64,248.25Z"/><path class="cls-1" d="M117,249.81l4.37,2.52c.25.15.22.41-.08.58L119.43,254a1.11,1.11,0,0,1-1,0l-4.37-2.51c-.25-.15-.22-.41.08-.58l1.89-1.1A1.11,1.11,0,0,1,117,249.81Z"/><polygon class="cls-4" points="140.93 181.67 108.35 162.86 108.77 160.74 141.34 179.55 140.93 181.67"/><polygon class="cls-4" points="129.26 185.25 106.51 172.12 106.93 170 129.68 183.13 129.26 185.25"/><polygon class="cls-10" points="127.11 178.85 107.43 167.49 107.85 165.37 127.52 176.73 127.11 178.85"/><polygon class="cls-3" points="140.01 186.3 130.17 180.62 130.59 178.5 140.43 184.18 140.01 186.3"/><path class="cls-3" d="M122.93,160.67a1.23,1.23,0,0,1-1.77.55,1.53,1.53,0,0,1-.63-1.93,1.23,1.23,0,0,1,1.77-.55A1.54,1.54,0,0,1,122.93,160.67Z"/><path class="cls-4" d="M127.17,163.12a1.23,1.23,0,0,1-1.77.54,1.53,1.53,0,0,1-.64-1.93,1.23,1.23,0,0,1,1.77-.54A1.54,1.54,0,0,1,127.17,163.12Z"/><path class="cls-3" d="M131.4,165.57a1.23,1.23,0,0,1-1.77.54,1.54,1.54,0,0,1-.63-1.93,1.24,1.24,0,0,1,1.77-.55A1.55,1.55,0,0,1,131.4,165.57Z"/><path class="cls-10" d="M135.64,168a1.23,1.23,0,0,1-1.77.55,1.55,1.55,0,0,1-.63-1.93,1.23,1.23,0,0,1,1.77-.55A1.54,1.54,0,0,1,135.64,168Z"/><path class="cls-3" d="M140.87,81.75l-1.67-1V78.37a9,9,0,0,0-4.06-7l-12.69-7.29c-2.24-1.29-4.06-.24-4.06,2.35v2.4l-1.67-1V65.44c0-3.65,2.57-5.13,5.73-3.31l12.69,7.28a12.7,12.7,0,0,1,5.73,9.93Z"/><path class="cls-3" d="M135.15,85l5.72-3.29-1.15-4-1.61-4s-2.75-3.08-3-3.14-7.71-4.32-7.71-4.32l-6.24-4.5-3,.1L112.69,65l4,1.65s2.25,1.12,2.77,1.25a20.74,20.74,0,0,1,2.78,2.27s2.72,1.1,2.72,1.1l.58-.09,4.87,3.41,1.57.7.84,1.36,1.3,3.63Z"/><path class="cls-2" d="M118.39,68.81l-5.72,3.3s-.37-3.69-.37-3.73,1.25-1.8,1.25-1.8l3.11-.6,2.46,1.86-.78-.32-.33.2.38.6Z"/><path class="cls-1" d="M135.15,85l-1.67-1v-2.4a9,9,0,0,0-4.06-7l-12.69-7.28c-2.24-1.29-4.06-.24-4.06,2.34v2.41l-1.67-1V68.73c0-3.64,2.57-5.13,5.73-3.3l12.69,7.28a12.66,12.66,0,0,1,5.73,9.92Z"/><path class="cls-3" d="M198.33,81.72,197.09,81c-.52.35-1.05.7-1.58,1l2.82,1.62a9,9,0,0,1,4,7v2.41l1.68,1V91.65A12.7,12.7,0,0,0,198.33,81.72Z"/><path class="cls-3" d="M201.3,86s-2.76-3.07-3-3.13-1-.55-2.22-1.23c-1.79,1.16-3.64,2.23-5.48,3.22l2.93,2.06,1.57.69L196,89l1.3,3.63,1.05,4.74,5.73-3.29-1.16-4Z"/><path class="cls-1" d="M192.6,87a9,9,0,0,1,4.06,7v2.41l1.67,1V95A12.68,12.68,0,0,0,192.6,85l-1.09-.63-1.74.94Z"/><path class="cls-11" d="M302.19,41.66l-19.14-11a1,1,0,0,0-1-.08h0l-1.85,1.07,1.3.48V46A3.69,3.69,0,0,0,283.05,49l18.29,10.56v1.63l1.88-1.08h0a1.38,1.38,0,0,0,.52-1.23V44.6A3.69,3.69,0,0,0,302.19,41.66Z"/><path class="cls-10" d="M300.3,61.09,281.16,50a3.69,3.69,0,0,1-1.54-2.94V32.87c0-1.14.69-1.66,1.54-1.17L300.3,42.75a3.69,3.69,0,0,1,1.54,2.94V59.92C301.84,61.06,301.15,61.58,300.3,61.09Z"/><path class="cls-4" d="M300.77,42.53l-19.14-11a.92.92,0,0,0-1.16.05,1.17,1.17,0,0,1,.69.17L300.3,42.75a3.69,3.69,0,0,1,1.54,2.94V59.92a1.54,1.54,0,0,1-.38,1.12c.5,0,.85-.54.85-1.34V45.47A3.69,3.69,0,0,0,300.77,42.53Z"/><path class="cls-4" d="M287.6,45.13c0,.83-.58,1.16-1.29.75a2.84,2.84,0,0,1-1.3-2.24c0-.82.58-1.15,1.3-.74A2.85,2.85,0,0,1,287.6,45.13Z"/><path class="cls-4" d="M291.51,47.39c0,.83-.58,1.16-1.29.75a2.83,2.83,0,0,1-1.29-2.24c0-.82.57-1.16,1.29-.74A2.85,2.85,0,0,1,291.51,47.39Z"/><path class="cls-4" d="M295.42,49.65c0,.83-.58,1.16-1.29.75a2.87,2.87,0,0,1-1.29-2.24c0-.82.58-1.16,1.29-.74A2.85,2.85,0,0,1,295.42,49.65Z"/><path class="cls-1" d="M291.3,23.77l-19.14-11a1,1,0,0,0-1-.08h0l-1.85,1.07,1.3.48V28.11a3.69,3.69,0,0,0,1.54,2.95l18.29,10.56v1.63l1.88-1.08h0a1.38,1.38,0,0,0,.52-1.23V26.71A3.69,3.69,0,0,0,291.3,23.77Z"/><path class="cls-3" d="M289.41,43.2,270.27,32.15a3.69,3.69,0,0,1-1.54-2.95V15c0-1.13.69-1.65,1.54-1.16l19.14,11A3.69,3.69,0,0,1,291,27.8V42C291,43.17,290.26,43.69,289.41,43.2Z"/><path class="cls-4" d="M289.88,24.64l-19.14-11a.92.92,0,0,0-1.16.05,1.17,1.17,0,0,1,.69.17l19.14,11A3.69,3.69,0,0,1,291,27.8V42a1.55,1.55,0,0,1-.38,1.12c.5,0,.85-.54.85-1.34V27.58A3.69,3.69,0,0,0,289.88,24.64Z"/><path class="cls-4" d="M276.71,27.24c0,.83-.58,1.16-1.3.75a2.85,2.85,0,0,1-1.29-2.24c0-.82.58-1.16,1.29-.74A2.84,2.84,0,0,1,276.71,27.24Z"/><path class="cls-4" d="M280.62,29.5c0,.82-.58,1.16-1.29.75A2.87,2.87,0,0,1,278,28c0-.82.58-1.16,1.3-.75A2.89,2.89,0,0,1,280.62,29.5Z"/><path class="cls-4" d="M284.53,31.76c0,.82-.58,1.16-1.29.75A2.86,2.86,0,0,1,282,30.27c0-.82.57-1.16,1.29-.75A2.87,2.87,0,0,1,284.53,31.76Z"/><rect class="cls-1" x="328.71" y="140.16" width="4.82" height="10.4" transform="translate(653.05 -19.37) rotate(129.2)"/><path class="cls-1" d="M334.84,150.6A3.79,3.79,0,0,0,337,148c.17-1.08-.51-1.63-1.53-1.25a3.75,3.75,0,0,0-2.15,2.64C333.14,150.43,333.82,151,334.84,150.6Z"/><rect class="cls-1" x="320.48" y="134.56" width="7.81" height="10.63" transform="translate(637.79 -23.11) rotate(129.2)"/><path class="cls-2" d="M329.94,141.29l2.73,2.23a6.19,6.19,0,0,1-3.05,3.73L326.9,145A6.23,6.23,0,0,1,329.94,141.29Z"/><path class="cls-1" d="M328,146.38a6.12,6.12,0,0,0,3.49-4.28c.28-1.74-.82-2.65-2.47-2a6.1,6.1,0,0,0-3.49,4.28C325.24,146.1,326.34,147,328,146.38Z"/><path class="cls-1" d="M319.75,139.66a6.12,6.12,0,0,0,3.49-4.28c.29-1.74-.82-2.65-2.47-2a6.12,6.12,0,0,0-3.49,4.28C317,139.38,318.11,140.28,319.75,139.66Z"/><ellipse class="cls-3" cx="320.26" cy="136.51" rx="2.21" ry="1.28" transform="translate(12.07 298.43) rotate(-50.8)"/><path class="cls-3" d="M334.86,147.54c.4.32.79.18.87-.33a1.75,1.75,0,0,0-.57-1.49c-.4-.33-.78-.18-.86.32A1.78,1.78,0,0,0,334.86,147.54Z"/><path class="cls-1" d="M259.21,221.06a7.25,7.25,0,0,1-3.76-1.08l-9.17-5.43a.58.58,0,0,1,.59-1l9.18,5.43a5.87,5.87,0,0,0,6.06.14,6.82,6.82,0,0,0,3.36-6c0-6-.65-13.45-1.35-21.33-2.18-24.6-4.66-52.48,10.86-56.45,6.86-1.76,12.1-3.62,16.31-5.11,12.13-4.3,16.66-5.91,29.19,5.74a.58.58,0,0,1-.79.85c-12-11.16-16-9.74-28-5.49-4.23,1.5-9.5,3.37-16.41,5.14-14.56,3.73-12.13,31.08-10,55.21.7,7.91,1.36,15.38,1.35,21.44a8,8,0,0,1-4,7A6.94,6.94,0,0,1,259.21,221.06Z"/><ellipse class="cls-5" cx="298.56" cy="219.59" rx="18.95" ry="10.94"/><path class="cls-6" d="M307.6,214.9a2.91,2.91,0,0,1,1.65,2.92,4.67,4.67,0,0,1-.24,1.43,2.39,2.39,0,0,1-3.23,1c-1.77-.7-5.72-4.41-5.87-6.83C299.64,208.9,304.79,213.7,307.6,214.9Z"/><path class="cls-6" d="M297.16,222.36a12.84,12.84,0,0,1,.22,3.07,3.33,3.33,0,0,1-3.27,1.27c-1.82-.22-7.08-2-8.25-5.49-1.82-5.37,10.14.4,10.14.4Z"/><path class="cls-6" d="M292,180.8l-.41,40.58a2.84,2.84,0,0,0,2.21,2.81,3.61,3.61,0,0,0,.5.06,2.55,2.55,0,0,0,2.41-1,3.08,3.08,0,0,0,.54-1.64l.52-17.32,2.58-15.49L304,216.22a2.39,2.39,0,0,0,1,1.81,2.78,2.78,0,0,0,1.64.44,3,3,0,0,0,2.16-1.07,2.14,2.14,0,0,0,.52-1.47l-1.42-16.49-.52-21Z"/><path class="cls-12" d="M297.28,144.48l.64,3.7a1.68,1.68,0,0,1-1.38,1.61c-1.41.35-1.84-.56-1.84-.56l-.64-4.17Z"/><ellipse class="cls-12" cx="293.53" cy="140.78" rx="5.36" ry="6.01" transform="translate(-14.72 245.48) rotate(-44.38)"/><path class="cls-1" d="M297.11,148.24c.1,0,6-3.82,8.15.14,3.55,6.46,3.34,27.25,2.22,29.94-1,2.5-3.62,4.33-5.43,5.37a10.93,10.93,0,0,1-5.28,1.5c-1.83,0-5.36-1.62-5.23-4,.59-11-.39-20.36-1.29-29.39C290.25,151.78,291.38,150.56,297.11,148.24Z"/><path class="cls-6" d="M300.38,188.81,304,216.22a2.39,2.39,0,0,0,1,1.81l.31.17c-.74-.56-2.91-23.57-3.31-26.13S300.38,188.81,300.38,188.81Z"/><polygon class="cls-12" points="278.32 149.46 275.12 139 276.81 138.3 280.57 146.5 278.32 149.46"/><polygon class="cls-12" points="310.52 141.22 308.12 130.32 306.22 130.34 306.93 139.38 310.52 141.22"/><path class="cls-1" d="M290.25,151.78s-5.74,1.14-9.39-5.54a.9.9,0,0,0-1.51-.16,4.67,4.67,0,0,0-1,3.73c1.78,6.54,11.43,8,13.16,11.77S290.25,151.78,290.25,151.78Z"/><path class="cls-1" d="M300.84,146.89s4.55.34,5.2-3.59a30.07,30.07,0,0,0,.46-3.93.79.79,0,0,1,.89-.77c1.09.13,2.78.46,3,1.19.35,1.08,1,6.43-3.5,14.62C304,159.79,300.84,146.89,300.84,146.89Z"/><path class="cls-12" d="M308.13,130.35l0-1.24a2.56,2.56,0,0,0-.37-1.24l-1.26-2.07-.33-.41a1,1,0,0,0-1.26-.22l-.29.18a1.18,1.18,0,0,0-.55,1.09l.65,1.76-.82-.16a.3.3,0,0,0-.35.24h0a.29.29,0,0,0,.18.32l1.35.54,1.22,1.73Z"/><path class="cls-12" d="M275.07,139.05l-.38-1.18a2.57,2.57,0,0,1-.07-1.29l.48-2.37.17-.5a1,1,0,0,1,1.11-.63l.34.07a1.21,1.21,0,0,1,.89.83l0,1.88.72-.43a.31.31,0,0,1,.41.11h0a.29.29,0,0,1-.06.36l-1.08,1-.63,2.29Z"/><path class="cls-2" d="M292.94,159.69c.52,2.39-.94,20.91,3.83,25.5-1.83,0-5.36-1.62-5.23-4a145.62,145.62,0,0,0-.44-20.31c-1.87-2.43-7-4-10.25-7.09C281.08,153.84,292.42,157.33,292.94,159.69Z"/><path class="cls-4" d="M299.23,147.2l-.82-.84A6.65,6.65,0,0,1,296,148a12.43,12.43,0,0,1-1.93.4l-.53,1.45S297.81,149.51,299.23,147.2Z"/><path class="cls-10" d="M293.21,142.9a.69.69,0,0,1-.64,0c-.34-.18-.91-1.56-1.63-1.46-1.13.16-2.77,2.53-4.81-.78-1.05-1.72-.43-2.65-.95-3.63,0,0,.18.53,4.62-2.18s8.06.6,9.19,2.48,1.85,5.58-1.06,7.66c-.48.35-3.59-.27-3.65-.53s.77-.68.3-1.29A1,1,0,0,0,293.21,142.9Z"/><polygon class="cls-5" points="28.22 288.61 18.79 283.16 28.22 277.71 37.66 283.16 28.22 288.61"/><polygon class="cls-11" points="37.66 276.98 28.22 282.43 28.22 271.53 37.66 266.08 37.66 276.98"/><polygon class="cls-10" points="28.22 271.53 18.79 266.08 28.22 260.64 37.66 266.08 28.22 271.53"/><polygon class="cls-10" points="28.22 282.43 18.79 276.98 18.79 266.08 28.22 271.53 28.22 282.43"/><polygon class="cls-5" points="28.22 113.16 18.79 107.71 28.22 102.26 37.66 107.71 28.22 113.16"/><polygon class="cls-6" points="37.66 101.53 28.22 106.98 28.22 96.08 37.66 90.64 37.66 101.53"/><polygon class="cls-3" points="28.22 96.08 18.79 90.64 28.22 85.19 37.66 90.64 28.22 96.08"/><polygon class="cls-1" points="28.22 106.98 18.79 101.53 18.79 90.64 28.22 96.08 28.22 106.98"/><polygon class="cls-5" points="179.87 296.41 170.43 290.96 179.87 285.52 189.3 290.96 179.87 296.41"/><polygon class="cls-6" points="189.3 284.78 179.87 290.23 179.87 279.34 189.3 273.89 189.3 284.78"/><polygon class="cls-3" points="179.87 279.34 170.43 273.89 179.87 268.44 189.3 273.89 179.87 279.34"/><polygon class="cls-1" points="179.87 290.23 170.43 284.78 170.43 273.89 179.87 279.34 179.87 290.23"/></g></g></svg>