<svg xmlns="http://www.w3.org/2000/svg" xmlns:xlink="http://www.w3.org/1999/xlink" viewBox="0 0 378.69 312.71"><defs><style>.cls-1{opacity:0.4;}.cls-2,.cls-3{fill:#fff;}.cls-19,.cls-3{opacity:0.5;}.cls-4{fill:#7dc3ea;}.cls-5{fill:url(#_ÂÁ_Ï_ÌÌ_È_ËÂÌÚ_3);}.cls-6{fill:url(#_ÂÁ_Ï_ÌÌ_È_ËÂÌÚ_10);}.cls-7{fill:url(#_ÂÁ_Ï_ÌÌ_È_ËÂÌÚ_13);}.cls-8{fill:#396caa;}.cls-9{fill:url(#_ÂÁ_Ï_ÌÌ_È_ËÂÌÚ_13-2);}.cls-10{fill:#d4ecff;}.cls-11{fill:#5793ce;}.cls-12{fill:url(#_ÂÁ_Ï_ÌÌ_È_ËÂÌÚ_45);}.cls-13,.cls-19{fill:#173d7a;}.cls-14{fill:#274f89;}.cls-15{fill:url(#_ÂÁ_Ï_ÌÌ_È_ËÂÌÚ_59);}.cls-16{fill:url(#_ÂÁ_Ï_ÌÌ_È_ËÂÌÚ_70);}.cls-17{fill:url(#_ÂÁ_Ï_ÌÌ_È_ËÂÌÚ_59-2);}.cls-18{fill:#ff2c9c;}.cls-20{fill:url(#_ÂÁ_Ï_ÌÌ_È_ËÂÌÚ_13-3);}.cls-21{fill:url(#_ÂÁ_Ï_ÌÌ_È_ËÂÌÚ_13-4);}.cls-22{fill:url(#_ÂÁ_Ï_ÌÌ_È_ËÂÌÚ_13-5);}.cls-23{fill:url(#_ÂÁ_Ï_ÌÌ_È_ËÂÌÚ_13-6);}.cls-24{fill:url(#_ÂÁ_Ï_ÌÌ_È_ËÂÌÚ_13-7);}.cls-25{fill:url(#_ÂÁ_Ï_ÌÌ_È_ËÂÌÚ_10-2);}.cls-26{fill:url(#_ÂÁ_Ï_ÌÌ_È_ËÂÌÚ_70-2);}</style><radialGradient id="_ÂÁ_Ï_ÌÌ_È_ËÂÌÚ_3" cx="349.87" cy="121.8" r="33.67" gradientUnits="userSpaceOnUse"><stop offset="0" stop-color="#274f89"/><stop offset="1" stop-color="#173d7a"/></radialGradient><linearGradient id="_ÂÁ_Ï_ÌÌ_È_ËÂÌÚ_10" x1="329.42" y1="109.58" x2="388.99" y2="109.58" gradientUnits="userSpaceOnUse"><stop offset="0" stop-color="#d4ecff"/><stop offset="0.24" stop-color="#d0eafe"/><stop offset="0.46" stop-color="#c5e2f9"/><stop offset="0.67" stop-color="#b2d6f2"/><stop offset="0.88" stop-color="#98c4e7"/><stop offset="1" stop-color="#86b8e0"/></linearGradient><radialGradient id="_ÂÁ_Ï_ÌÌ_È_ËÂÌÚ_13" cx="301.46" cy="86.96" r="60.86" gradientUnits="userSpaceOnUse"><stop offset="0" stop-color="#699dd1"/><stop offset="0.27" stop-color="#6396cc"/><stop offset="0.64" stop-color="#5184bd"/><stop offset="1" stop-color="#396caa"/></radialGradient><radialGradient id="_ÂÁ_Ï_ÌÌ_È_ËÂÌÚ_13-2" cx="7.08" cy="213.1" r="39.39" xlink:href="#_ÂÁ_Ï_ÌÌ_È_ËÂÌÚ_13"/><linearGradient id="_ÂÁ_Ï_ÌÌ_È_ËÂÌÚ_45" x1="14.51" y1="200.47" x2="76.21" y2="237.26" gradientUnits="userSpaceOnUse"><stop offset="0" stop-color="#d4ecff"/><stop offset="0.2" stop-color="#d0eafe"/><stop offset="0.39" stop-color="#c5e2f9"/><stop offset="0.57" stop-color="#b2d6f2"/><stop offset="0.74" stop-color="#98c4e7"/><stop offset="0.84" stop-color="#86b8e0"/></linearGradient><radialGradient id="_ÂÁ_Ï_ÌÌ_È_ËÂÌÚ_59" cx="319.64" cy="180.93" r="201.69" gradientUnits="userSpaceOnUse"><stop offset="0" stop-color="#86b8e0"/><stop offset="0.12" stop-color="#98c4e7"/><stop offset="0.33" stop-color="#b2d6f2"/><stop offset="0.54" stop-color="#c5e2f9"/><stop offset="0.76" stop-color="#d0eafe"/><stop offset="1" stop-color="#d4ecff"/></radialGradient><radialGradient id="_ÂÁ_Ï_ÌÌ_È_ËÂÌÚ_70" cx="303.67" cy="135.34" r="138.79" gradientUnits="userSpaceOnUse"><stop offset="0" stop-color="#173d7a"/><stop offset="1" stop-color="#274f89"/></radialGradient><radialGradient id="_ÂÁ_Ï_ÌÌ_È_ËÂÌÚ_59-2" cx="325.13" cy="196.45" r="273.72" xlink:href="#_ÂÁ_Ï_ÌÌ_È_ËÂÌÚ_59"/><radialGradient id="_ÂÁ_Ï_ÌÌ_È_ËÂÌÚ_13-3" cx="129.82" cy="149.06" r="12.73" xlink:href="#_ÂÁ_Ï_ÌÌ_È_ËÂÌÚ_13"/><radialGradient id="_ÂÁ_Ï_ÌÌ_È_ËÂÌÚ_13-4" cx="122.7" cy="135.4" r="20.13" xlink:href="#_ÂÁ_Ï_ÌÌ_È_ËÂÌÚ_13"/><radialGradient id="_ÂÁ_Ï_ÌÌ_È_ËÂÌÚ_13-5" cx="172.62" cy="173.8" r="12.73" xlink:href="#_ÂÁ_Ï_ÌÌ_È_ËÂÌÚ_13"/><radialGradient id="_ÂÁ_Ï_ÌÌ_È_ËÂÌÚ_13-6" cx="165.5" cy="160.14" r="20.13" xlink:href="#_ÂÁ_Ï_ÌÌ_È_ËÂÌÚ_13"/><radialGradient id="_ÂÁ_Ï_ÌÌ_È_ËÂÌÚ_13-7" cx="184.54" cy="89.55" r="72.45" xlink:href="#_ÂÁ_Ï_ÌÌ_È_ËÂÌÚ_13"/><linearGradient id="_ÂÁ_Ï_ÌÌ_È_ËÂÌÚ_10-2" x1="87.67" y1="95.49" x2="234" y2="95.49" xlink:href="#_ÂÁ_Ï_ÌÌ_È_ËÂÌÚ_10"/><radialGradient id="_ÂÁ_Ï_ÌÌ_È_ËÂÌÚ_70-2" cx="229.12" cy="150.15" r="146.5" xlink:href="#_ÂÁ_Ï_ÌÌ_È_ËÂÌÚ_70"/></defs><g id="katman_2" data-name="katman 2"><g id="_ÎÓÈ_1" data-name="—ÎÓÈ_1"><g class="cls-1"><path class="cls-2" d="M347.4,102.44,316.11,84.37,347.4,66.31l31.28,18.06ZM318.33,84.37l29.07,16.79,29.06-16.79L347.4,67.59Z"/><path class="cls-2" d="M287,102.44l-.27-.16-31-17.91L287,66.31l.28.16,31,17.9ZM258,84.37,287,101.16l29.07-16.79L287,67.59Z"/><path class="cls-2" d="M317.22,119.86,285.93,101.8l31.29-18.07L348.5,101.8ZM288.15,101.8l29.07,16.78,29.07-16.78L317.22,85Z"/><path class="cls-2" d="M347.4,137.28l-.28-.16-31-17.9,31.29-18.06.27.16,31,17.9Zm-29.07-18.06L347.4,136l29.07-16.78L347.4,102.44Z"/><path class="cls-2" d="M226.69,102.44l-.28-.16-31-17.91,31.29-18.06.27.16,31,17.9ZM197.62,84.37l29.07,16.79,29.07-16.79L226.69,67.59Z"/><path class="cls-2" d="M256.87,119.86l-.28-.16-31-17.9,31.28-18.07.28.16,31,17.91ZM227.79,101.8l29.08,16.78,29.06-16.78L256.86,85Z"/><path class="cls-2" d="M287,137.28l-.27-.16-31-17.9L287,101.16l31.29,18.06ZM258,119.22,287,136l29.07-16.78L287,102.44Z"/><path class="cls-2" d="M317.22,154.7l-31.28-18.06,31.28-18.06.28.16,31,17.9Zm-29.07-18.06,29.07,16.78,29.07-16.78-29.07-16.78Z"/><path class="cls-2" d="M347.4,172.13l-31.29-18.07L347.4,136l.27.16,31,17.91Zm-29.07-18.07,29.07,16.79,29.07-16.78L347.4,137.28Z"/><path class="cls-2" d="M166.33,102.43l-.27-.16-31-17.9,31.28-18.06,31.29,18.06ZM137.26,84.37l29.07,16.79L195.4,84.37,166.33,67.59Z"/><path class="cls-2" d="M196.51,119.86l-31.28-18.07,31.28-18.06.28.16,31,17.91Zm-29.07-18.07,29.07,16.79,29.07-16.78L196.51,85Z"/><path class="cls-2" d="M226.69,137.28l-.28-.16-31-17.9,31.29-18.06.27.16,31,17.9Zm-29.07-18.06L226.69,136l29.07-16.78-29.07-16.78Z"/><path class="cls-2" d="M256.87,154.7l-.28-.16-31-17.9,31.29-18.06.27.16,31,17.9ZM227.8,136.64l29.07,16.78,29.07-16.78-29.07-16.78Z"/><path class="cls-2" d="M287,172.13l-31.28-18.07L287,136l31.29,18.06ZM258,154.06,287,170.85l29.07-16.79L287,137.28Z"/><path class="cls-2" d="M317.22,189.55l-.28-.16-31-17.9,31.28-18.07,31.28,18.07Zm-29.07-18.06,29.07,16.78,29.07-16.78L317.22,154.7Z"/><path class="cls-2" d="M347.4,207l-31.29-18.06,31.29-18.06.27.16,31,17.9Zm-29.07-18.06,29.07,16.78,29.07-16.78L347.4,172.13Z"/><path class="cls-2" d="M106,102.43l-.28-.16-31-17.9L106,66.31l.27.16,31,17.9ZM76.91,84.37,106,101.16l29.07-16.79L106,67.59Z"/><path class="cls-2" d="M136.16,119.86l-.28-.16-31-17.91,31.29-18.06.27.16,31,17.9Zm-29.07-18.07,29.07,16.79,29.07-16.79L136.16,85Z"/><path class="cls-2" d="M166.33,137.28l-.27-.16-31-17.9,31.28-18.06,31.29,18.06Zm-29.07-18.06L166.33,136l29.07-16.78-29.07-16.79Z"/><path class="cls-2" d="M196.51,154.7l-.27-.16-31-17.9,31.28-18.06.28.16,31,17.9Zm-29.07-18.06,29.07,16.78,29.07-16.78-29.07-16.78Z"/><path class="cls-2" d="M226.69,172.13,195.4,154.06,226.69,136l.27.16,31,17.9Zm-29.07-18.07,29.07,16.79,29.07-16.79-29.07-16.78Z"/><path class="cls-2" d="M256.87,189.55l-31.29-18.06,31.29-18.07,31.28,18.07ZM227.8,171.49l29.07,16.78,29.07-16.78L256.87,154.7Z"/><path class="cls-2" d="M287,207l-.27-.16-31-17.9L287,170.85l.28.16,31,17.9ZM258,188.91,287,205.69l29.07-16.78L287,172.13Z"/><path class="cls-2" d="M317.22,224.4l-.27-.16-31-17.91,31.28-18.06,31.29,18.06Zm-29.07-18.07,29.07,16.79,29.07-16.79-29.07-16.78Z"/><path class="cls-2" d="M347.4,241.82l-.28-.16-31-17.9,31.29-18.07.27.16,31,17.91Zm-29.07-18.06,29.07,16.78,29.07-16.78L347.4,207Z"/><path class="cls-2" d="M45.62,102.43l-.27-.16-31-17.9L45.62,66.31,76.91,84.37ZM16.55,84.37l29.07,16.78L74.69,84.37,45.62,67.59Z"/><path class="cls-2" d="M75.8,119.86l-.27-.16-31-17.91L75.8,83.73l.28.16,31,17.9ZM46.73,101.79,75.8,118.58l29.07-16.79L75.8,85Z"/><path class="cls-2" d="M106,137.28,74.69,119.22,106,101.16l.27.16,31,17.9ZM76.91,119.22,106,136l29.07-16.78L106,102.43Z"/><path class="cls-2" d="M136.16,154.7l-.28-.16-31-17.9,31.29-18.06.27.16,31,17.9Zm-29.07-18.06,29.07,16.78,29.07-16.78-29.07-16.78Z"/><path class="cls-2" d="M166.33,172.13l-.27-.16-31-17.91L166.33,136l.28.16,31,17.9Zm-29.07-18.07,29.07,16.79,29.07-16.79-29.07-16.78Z"/><path class="cls-2" d="M196.51,189.55l-.27-.16-31-17.9,31.28-18.07,31.29,18.07Zm-29.07-18.06,29.07,16.78,29.07-16.78L196.51,154.7Z"/><path class="cls-2" d="M226.69,207l-.28-.16-31-17.9,31.28-18.06L258,188.91Zm-29.07-18.06,29.07,16.78,29.07-16.78-29.07-16.78Z"/><path class="cls-2" d="M256.87,224.4l-31.29-18.07,31.29-18.06.27.16,31,17.9ZM227.8,206.33l29.07,16.79,29.07-16.79-29.07-16.78Z"/><path class="cls-2" d="M287,241.82l-.27-.16-31-17.9L287,205.69l.28.16,31,17.91ZM258,223.76,287,240.54l29.07-16.78L287,207Z"/><path class="cls-2" d="M317.22,259.24l-.27-.16-31-17.9,31.28-18.06.28.16,31,17.9Zm-29.07-18.06L317.22,258l29.07-16.78L317.22,224.4Z"/><path class="cls-2" d="M347.4,276.66l-.28-.16-31-17.9,31.28-18.06,31.28,18.06ZM318.33,258.6l29.07,16.78,29.07-16.78L347.4,241.82Z"/><path class="cls-2" d="M45.62,137.28l-.27-.16-31-17.9,31.28-18.07.28.16,31,17.91ZM16.55,119.22,45.62,136l29.07-16.78L45.62,102.43Z"/><path class="cls-2" d="M75.8,154.7l-.27-.16-31-17.9L75.8,118.58l31.29,18.06ZM46.73,136.64,75.8,153.42l29.07-16.78L75.8,119.86Z"/><path class="cls-2" d="M106,172.13,74.7,154.06,106,136l.28.16,31,17.9ZM76.91,154.06,106,170.85l29.07-16.79L106,137.28Z"/><path class="cls-2" d="M136.16,189.55l-.28-.16-31-17.9,31.29-18.07.27.16,31,17.91Zm-29.07-18.06,29.07,16.78,29.07-16.78L136.16,154.7Z"/><path class="cls-2" d="M166.34,207l-.28-.16-31-17.9,31.28-18.06.28.16,31,17.9Zm-29.07-18.06,29.07,16.78,29.07-16.78-29.08-16.78Z"/><path class="cls-2" d="M196.51,224.39l-.27-.16-31-17.9,31.28-18.06.28.16,31,17.9Zm-29.07-18.06,29.07,16.79,29.07-16.79-29.07-16.78Z"/><path class="cls-2" d="M226.69,241.82l-31.28-18.07,31.28-18.06L258,223.76Zm-29.07-18.07,29.07,16.79,29.07-16.78L226.69,207Z"/><path class="cls-2" d="M256.87,259.24l-31.29-18.06,31.29-18.06.27.16,31,17.9ZM227.8,241.18,256.87,258l29.07-16.78L256.87,224.4Z"/><path class="cls-2" d="M287.05,276.66l-.28-.16-31-17.9L287,240.54l.28.16,31,17.9ZM258,258.6l29.07,16.78,29.07-16.78L287,241.82Z"/><path class="cls-2" d="M317.22,294.09l-.27-.16-31-17.91L317.22,258l.28.16,31,17.9ZM288.15,276l29.07,16.79L346.29,276l-29.07-16.78Z"/><path class="cls-2" d="M347.4,311.51l-.28-.16-31-17.9,31.28-18.07.28.16,31,17.91Zm-29.07-18.06,29.07,16.78,29.07-16.78L347.4,276.66Z"/><path class="cls-2" d="M45.63,172.13l-.28-.17-31-17.9L45.62,136l.28.16,31,17.9ZM16.56,154.06l29.07,16.79L74.7,154.06,45.62,137.28Z"/><path class="cls-2" d="M75.8,189.55l-.27-.16-31-17.9L75.8,153.42l31.29,18.07ZM46.73,171.49,75.8,188.27l29.07-16.78L75.8,154.7Z"/><path class="cls-2" d="M106,207l-.28-.16-31-17.9L106,170.85l.28.16,31,17.9ZM76.91,188.91,106,205.69l29.07-16.78L106,172.13Z"/><path class="cls-2" d="M136.16,224.39l-31.29-18.06,31.29-18.06.27.16,31,17.9Zm-29.07-18.06,29.07,16.79,29.07-16.79-29.07-16.78Z"/><path class="cls-2" d="M166.34,241.82l-.28-.16-31-17.91,31.29-18.06.27.16,31,17.9Zm-29.07-18.07,29.07,16.79,29.07-16.79L166.34,207Z"/><path class="cls-2" d="M196.51,259.24l-31.28-18.06,31.28-18.06,31.29,18.06Zm-29.07-18.06L196.51,258l29.07-16.78-29.07-16.79Z"/><path class="cls-2" d="M226.69,276.66l-.28-.16-31-17.9,31.28-18.06L258,258.6ZM197.62,258.6l29.07,16.78,29.07-16.78-29.07-16.78Z"/><path class="cls-2" d="M256.87,294.09l-.28-.16-31-17.91L256.87,258l.27.16,31,17.9ZM227.8,276l29.07,16.79L285.94,276l-29.07-16.78Z"/><path class="cls-2" d="M287.05,311.51l-31.29-18.06,31.29-18.07.27.16,31,17.91ZM258,293.45l29.07,16.78,29.07-16.78-29.07-16.79Z"/><path class="cls-2" d="M45.63,207l-.28-.16-31-17.9,31.29-18.06.27.16,31,17.9ZM16.56,188.91l29.07,16.78L74.7,188.91,45.63,172.13Z"/><path class="cls-2" d="M75.8,224.39l-.27-.16-31-17.9L75.8,188.27l.28.16,31,17.9ZM46.73,206.33,75.8,223.11l29.07-16.78L75.8,189.55Z"/><path class="cls-2" d="M106,241.82l-.27-.16-31-17.91L106,205.69l31.29,18.06ZM76.91,223.75,106,240.54l29.07-16.79L106,207Z"/><path class="cls-2" d="M136.16,259.24l-31.28-18.06,31.28-18.06.28.16,31,17.9Zm-29.07-18.06L136.16,258l29.07-16.78-29.07-16.79Z"/><path class="cls-2" d="M166.34,276.66l-.28-.16-31-17.9,31.29-18.06,31.28,18.06ZM137.27,258.6l29.07,16.78,29.07-16.78-29.07-16.78Z"/><path class="cls-2" d="M196.51,294.09,165.23,276,196.51,258l.28.16,31,17.9ZM167.45,276l29.06,16.79L225.58,276l-29.07-16.78Z"/><path class="cls-2" d="M226.69,311.51l-.27-.16-31-17.9,31.28-18.07.28.16,31,17.91Zm-29.07-18.06,29.07,16.78,29.07-16.78-29.07-16.79Z"/><path class="cls-2" d="M45.63,241.82l-.28-.16-31-17.91,31.29-18.06.27.16,31,17.9ZM16.56,223.75l29.07,16.79L74.7,223.75,45.63,207Z"/><path class="cls-2" d="M75.81,259.24l-.28-.16-31-17.9L75.8,223.11l.28.16,31,17.91ZM46.74,241.18,75.81,258l29.07-16.78L75.8,224.39Z"/><path class="cls-2" d="M106,276.66l-.27-.16-31-17.9L106,240.54l31.29,18.06ZM76.91,258.6,106,275.38l29.07-16.78L106,241.82Z"/><path class="cls-2" d="M136.16,294.09l-.28-.17-31-17.9L136.16,258l.28.16,31,17.9ZM107.09,276l29.07,16.79L165.23,276l-29.07-16.78Z"/><path class="cls-2" d="M166.34,311.51l-31.29-18.06,31.29-18.07,31.28,18.07Zm-29.07-18.06,29.07,16.78,29.07-16.78-29.07-16.79Z"/><path class="cls-2" d="M45.63,276.66,14.34,258.6l31.29-18.06.27.16,31,17.9ZM16.56,258.6l29.07,16.78L74.7,258.6,45.63,241.82Z"/><path class="cls-2" d="M75.81,294.09l-.28-.17-31-17.9L75.81,258l.27.16,31,17.9ZM46.74,276l29.07,16.79L104.88,276,75.81,259.24Z"/><path class="cls-2" d="M106,311.51l-.27-.16-31-17.9L106,275.38l.28.16,31,17.91ZM76.91,293.45,106,310.23l29.07-16.78L106,276.66Z"/><path class="cls-2" d="M45.63,311.51,14.34,293.44l31.29-18.06.28.16,31,17.91ZM16.56,293.44l29.07,16.79L74.7,293.45,45.63,276.66Z"/></g><path class="cls-2" d="M254.75,270.26a6.65,6.65,0,0,1-3,5.21c-1.66,1-3,.19-3-1.73a6.65,6.65,0,0,1,3-5.21C253.4,267.57,254.75,268.34,254.75,270.26Z"/><path class="cls-2" d="M264.5,264.63a6.65,6.65,0,0,1-3,5.21c-1.66,1-3,.19-3-1.73a6.65,6.65,0,0,1,3-5.21C263.15,261.94,264.5,262.72,264.5,264.63Z"/><path class="cls-2" d="M274.25,259a6.65,6.65,0,0,1-3,5.21c-1.66,1-3,.19-3-1.73a6.64,6.64,0,0,1,3-5.21C272.9,256.31,274.25,257.09,274.25,259Z"/><path class="cls-2" d="M284,253.37a6.61,6.61,0,0,1-3,5.21c-1.66,1-3,.19-3-1.73a6.64,6.64,0,0,1,3-5.21C282.66,250.68,284,251.46,284,253.37Z"/><polygon class="cls-2" points="5.27 197.07 0 200.11 0 194.02 5.27 190.98 5.27 197.07"/><polygon class="cls-2" points="13.82 192.13 8.54 195.18 8.54 189.09 13.82 186.05 13.82 192.13"/><polygon class="cls-2" points="22.36 187.2 17.09 190.24 17.09 184.16 22.36 181.11 22.36 187.2"/><polygon class="cls-2" points="30.9 182.27 25.63 185.31 25.63 179.22 30.9 176.18 30.9 182.27"/><polygon class="cls-2" points="95.55 267.31 89.53 270.79 89.53 263.84 95.55 260.37 95.55 267.31"/><polygon class="cls-2" points="103.9 262.43 97.89 265.91 97.89 258.96 103.9 255.49 103.9 262.43"/><polygon class="cls-2" points="95.6 276.33 89.59 279.8 89.59 272.85 95.6 269.38 95.6 276.33"/><polygon class="cls-2" points="103.9 271.54 97.89 275.01 97.89 268.06 103.9 264.59 103.9 271.54"/><path class="cls-3" d="M160.25,276.3a9.63,9.63,0,0,0-2.49,2.15c-.12-4.92-3.65-6.89-8-4.38a14.54,14.54,0,0,0-3.84,3.36c-1.94-3.39-5.95-4.17-10.59-1.49-6.54,3.77-11.83,12.95-11.83,20.49a14,14,0,0,0,.12,1.76,4.5,4.5,0,0,0-3.32.67,12.55,12.55,0,0,0-5.66,9.81c0,3.61,2.54,5.07,5.66,3.27l40-23.07a12,12,0,0,0,5.44-9.42C165.69,276,163.26,274.57,160.25,276.3Z"/><polygon class="cls-4" points="352.01 168.7 329.42 155.65 352 142.61 374.6 155.65 352.01 168.7"/><path class="cls-2" d="M352,160.62a1.73,1.73,0,0,1-.86-.23l-22.59-13a1.71,1.71,0,0,1-.86-1.49,1.73,1.73,0,0,1,.86-1.49l22.59-13a1.69,1.69,0,0,1,1.71,0l22.59,13a1.72,1.72,0,0,1,0,3l-22.59,13A1.72,1.72,0,0,1,352,160.62Zm-19.16-14.76L352,156.92l19.15-11.06L352,134.8Z"/><polygon class="cls-5" points="374.6 135.67 352.01 148.71 352.01 122.63 374.6 109.58 374.6 135.67"/><polygon class="cls-6" points="352.01 122.63 329.42 109.58 352 96.54 374.6 109.58 352.01 122.63"/><polygon class="cls-7" points="352.01 148.71 329.42 135.67 329.42 109.58 352.01 122.63 352.01 148.71"/><polygon class="cls-2" points="343.87 134.62 337.55 130.97 337.55 123.68 343.87 127.32 343.87 134.62"/><path class="cls-4" d="M37.55,268,6.38,250c-1.91-1.1-1.67-3,.54-4.31L37,228.34a8.29,8.29,0,0,1,7.46-.31l31.17,18c1.91,1.11,1.67,3-.54,4.31L45,267.7C42.8,269,39.46,269.12,37.55,268Z"/><path class="cls-2" d="M40.8,260.69a8.42,8.42,0,0,1-4.14-1l-31.16-18a4,4,0,0,1-2.18-3.41,4.79,4.79,0,0,1,2.71-4L36.12,217a10,10,0,0,1,9.24-.31l31.16,18a4,4,0,0,1,2.18,3.41A4.77,4.77,0,0,1,76,242l-30.1,17.37A10.36,10.36,0,0,1,40.8,260.69Zm-2.37-4.06a6.56,6.56,0,0,0,5.69-.3L74.22,239c.75-.44.93-.83.94-.91a1.14,1.14,0,0,0-.41-.33l-31.16-18a6.55,6.55,0,0,0-5.7.31L7.8,237.4c-.75.44-.93.83-.94.9a1,1,0,0,0,.41.34Z"/><path class="cls-8" d="M76.92,227h0V216.27l-24.11,0-8.34-4.81c-1.91-1.1-5.25-1-7.46.31l-7.78,4.49H5.1v11.06a2.17,2.17,0,0,0,1.28,2l31.17,18c1.91,1.1,5.25,1,7.46-.31L75.1,229.6C76.38,228.86,77,227.91,76.92,227Z"/><path class="cls-9" d="M41,210.7a8.72,8.72,0,0,0-4,1.05l-7.78,4.49H5.1v11.06a2.17,2.17,0,0,0,1.28,2l31.17,18A6.78,6.78,0,0,0,41,248Z"/><path class="cls-10" d="M7.83,216.23H5.1v11.06a2.17,2.17,0,0,0,1.28,2l1.45.83Z"/><path class="cls-11" d="M38,247.51a8.5,8.5,0,0,0,6-.06V234.89H38Z"/><path class="cls-12" d="M37.55,236.26l-31.17-18c-1.91-1.11-1.67-3,.54-4.31L37,196.59c2.21-1.28,5.55-1.42,7.46-.31l31.17,18c1.91,1.1,1.67,3-.54,4.31L45,236A8.29,8.29,0,0,1,37.55,236.26Z"/><path class="cls-2" d="M75.1,216.46,45,233.83c-2.21,1.28-5.55,1.42-7.46.31l-31.17-18a2.84,2.84,0,0,1-1-.85c-.66,1.06-.36,2.21,1,3l31.17,18A8.29,8.29,0,0,0,45,236L75.1,218.58c1.72-1,2.24-2.38,1.49-3.46A4.21,4.21,0,0,1,75.1,216.46Z"/><path class="cls-10" d="M65.46,229.86A2.8,2.8,0,0,1,64.2,232c-.7.4-1.26.07-1.26-.73a2.77,2.77,0,0,1,1.26-2.18C64.89,228.73,65.46,229.06,65.46,229.86Z"/><path class="cls-10" d="M69.51,227.52a2.8,2.8,0,0,1-1.26,2.18c-.7.4-1.26.08-1.26-.73a2.79,2.79,0,0,1,1.26-2.18C68.94,226.39,69.51,226.72,69.51,227.52Z"/><path class="cls-10" d="M73.56,225.18a2.8,2.8,0,0,1-1.26,2.18c-.7.4-1.26.08-1.26-.72a2.76,2.76,0,0,1,1.26-2.18C73,224.05,73.56,224.38,73.56,225.18Z"/><path class="cls-11" d="M39.39,225.1l-14.58-8.42c-.9-.51-.79-1.41.25-2l14.08-8.13a3.89,3.89,0,0,1,3.49-.15l14.58,8.42c.9.52.79,1.42-.25,2L42.88,225A3.86,3.86,0,0,1,39.39,225.1Z"/><path class="cls-10" d="M40.79,218.05l-2-1.16c-.13-.07-.11-.2,0-.28l2-1.12a.49.49,0,0,1,.48,0l2,1.16c.13.07.11.2,0,.28L41.27,218A.49.49,0,0,1,40.79,218.05Z"/><path class="cls-8" d="M24.81,216.68l0,0,.21-.15,14.08-8.13a3.89,3.89,0,0,1,3.49-.14l14.54,8.4c.83-.59.87-1.4,0-1.88l-14.58-8.42a3.89,3.89,0,0,0-3.49.15l-14.08,8.13C24,215.27,23.91,216.17,24.81,216.68Z"/><path class="cls-2" d="M90.59,119.62a10.45,10.45,0,0,0-1.7,1.25c-.24-7.67-5.78-10.72-12.6-6.78-5.55,3.2-10.26,10.07-12,16.8a7.48,7.48,0,0,0-4.71,1.17c-5,2.87-9,9.85-9,15.59s4,8.07,9,5.19l31-17.87a14.69,14.69,0,0,0,6.65-11.51C97.24,119.22,94.26,117.5,90.59,119.62Z"/><path class="cls-2" d="M350,11a10.88,10.88,0,0,0-2.85,2.45C347,7.82,343,5.58,338,8.45a16.56,16.56,0,0,0-4.39,3.83c-2.21-3.87-6.79-4.77-12.1-1.7C314.06,14.89,308,25.38,308,34a16,16,0,0,0,.13,2,5.1,5.1,0,0,0-3.78.77A14.28,14.28,0,0,0,297.89,48c0,4.13,2.89,5.8,6.47,3.74L350,25.36a13.73,13.73,0,0,0,6.22-10.77C356.23,10.62,353.45,9,350,11Z"/><path class="cls-2" d="M318.52,204.53a1.46,1.46,0,0,1-.7-.18,1.51,1.51,0,0,1-.65-2,17.16,17.16,0,0,1,6.2-6.82,8.09,8.09,0,0,1,4.37-1.21h.18c1.93,0,4.28-1.46,6.33-3.94a14.72,14.72,0,0,1,3.95-3.42,8.06,8.06,0,0,1,4.36-1.21c1.92.13,4.39-1.37,6.52-3.93a15,15,0,0,1,3.94-3.42,8,8,0,0,1,4.37-1.21c1.91.13,4.39-1.37,6.51-3.93a14.9,14.9,0,0,1,4-3.42c2.22-1.28,4.44-1.56,6.24-.77a1.52,1.52,0,1,1-1.21,2.78,4,4,0,0,0-3.52.62,11.87,11.87,0,0,0-3.12,2.73c-2.77,3.34-6.08,5.15-9,5a5,5,0,0,0-2.7.8,12.06,12.06,0,0,0-3.13,2.73c-2.77,3.34-6,5.15-9,5a5,5,0,0,0-2.7.81,11.87,11.87,0,0,0-3.12,2.73c-2.77,3.34-6.09,5.15-9,5a5,5,0,0,0-2.7.81,14,14,0,0,0-5,5.59A1.51,1.51,0,0,1,318.52,204.53Z"/><path class="cls-4" d="M194.51,280.39,70.27,208.65c-3.52-2-3.08-5.57,1-7.91l84.6-48.83c4.06-2.35,10.2-2.6,13.71-.57l124.25,71.73c3.51,2,3.07,5.58-1,7.92l-84.6,48.83C204.17,282.16,198,282.41,194.51,280.39Z"/><path class="cls-2" d="M200.48,269.49a13.54,13.54,0,0,1-6.7-1.57L69.54,196.19a5.47,5.47,0,0,1-3.1-4.7c0-2.15,1.49-4.24,4.08-5.74l84.6-48.82c4.53-2.62,11.2-2.87,15.17-.57l124.25,71.73a5.47,5.47,0,0,1,3.1,4.7c0,2.15-1.49,4.24-4.09,5.74L209,267.36A17.38,17.38,0,0,1,200.48,269.49Zm-5.24-4.09c3,1.77,8.67,1.51,12.26-.56L292.1,216c1.64-.95,2.63-2.16,2.63-3.22a2.79,2.79,0,0,0-1.65-2.18L168.84,138.88c-3.06-1.77-8.67-1.5-12.26.57L72,188.28c-1.65.95-2.63,2.15-2.63,3.21A2.79,2.79,0,0,0,71,193.67Z"/><path class="cls-13" d="M324.62,72.5,200.38.77a5,5,0,0,0-4.21-.52h0L196,.32l0,0-4.49,1.71,4,2-.06.22-21.95,99.83c-1,4.61,1,10,4.53,12l121.25,70-.43,5.14,4.91-1.9a6.9,6.9,0,0,0,3.51-5l21.95-99.84C330.17,79.91,328.14,74.53,324.62,72.5Z"/><path class="cls-8" d="M324.62,72.5,200.38.77a5,5,0,0,0-4.21-.52h0L196,.32l0,0-4.49,1.71,4,2-.06.22-15,68.42,60.79,47.37,87.43-42.6A9.61,9.61,0,0,0,324.62,72.5Z"/><path class="cls-14" d="M319.94,86.66l9.46-4a11.9,11.9,0,0,0-3.83-9.47l-15,6.3Z"/><path class="cls-15" d="M294.46,190.77,170.22,119c-3.52-2-5.54-7.41-4.53-12L187.64,7.18c1-4.61,4.69-6.7,8.2-4.67L320.08,74.24c3.52,2,5.55,7.41,4.53,12L302.66,186.1C301.65,190.71,298,192.8,294.46,190.77Z"/><path class="cls-2" d="M321.28,73.8,197,2.07a4.91,4.91,0,0,0-4.89-.21,5.07,5.07,0,0,1,3.7.65L320.08,74.24c3.52,2,5.55,7.41,4.53,12L302.66,186.1a7,7,0,0,1-3.3,4.88c2.09-.46,3.84-2.36,4.49-5.32l22-99.84C326.82,81.22,324.79,75.83,321.28,73.8Z"/><path class="cls-2" d="M291.77,183.92,174.92,116.49c-3.22-1.86-5.07-6.78-4.14-11l20.23-92c.93-4.21,4.29-6.13,7.5-4.27L315.36,76.63c3.22,1.85,5.07,6.78,4.15,11l-20.24,92C298.35,183.86,295,185.77,291.77,183.92Z"/><path class="cls-16" d="M291.77,183.92,174.92,116.49c-3.22-1.86-5.07-6.78-4.14-11l20.23-92c.93-4.21,4.29-6.13,7.5-4.27L315.36,76.63c3.22,1.85,5.07,6.78,4.15,11l-20.24,92C298.35,183.86,295,185.77,291.77,183.92Z"/><path class="cls-11" d="M292.79,183.5,175.94,116.07c-3.22-1.85-5.07-6.78-4.15-11l20.24-92A6.48,6.48,0,0,1,195,8.62c-1.85.48-3.38,2.22-4,4.85l-20.23,92c-.93,4.22.92,9.14,4.14,11l116.85,67.43a4.48,4.48,0,0,0,4.56.16A4.63,4.63,0,0,1,292.79,183.5Z"/><path class="cls-13" d="M296.18,193.89l-17-2.24L169.56,128.36c-3.51-2-9.65-1.78-13.71.56L78.17,173.76,67.9,172.4v5.83h0c-.07,1.35.7,2.64,2.36,3.6l124.24,71.73c3.52,2,9.66,1.78,13.71-.57l84.6-48.82c2.29-1.32,3.43-3,3.36-4.62h0Z"/><path class="cls-8" d="M213.81,153.9,206,149.4H120.38L78.17,173.76,67.9,172.4v5.83h0c-.07,1.35.7,2.64,2.36,3.6l124.24,71.73a12.93,12.93,0,0,0,7.08,1.33Z"/><path class="cls-11" d="M72.46,173l-4.56-.6v5.83h0c-.07,1.35.7,2.64,2.36,3.6l2.19,1.26Z"/><path class="cls-14" d="M195.76,254.14a15.88,15.88,0,0,0,11.65-.72v-13H195.76Z"/><path class="cls-17" d="M194.51,247.74,70.27,176c-3.52-2-3.08-5.57,1-7.92l84.6-48.82c4.06-2.35,10.2-2.6,13.71-.57l124.25,71.73c3.51,2,3.07,5.57-1,7.92l-84.6,48.82C204.17,249.52,198,249.77,194.51,247.74Z"/><path class="cls-2" d="M292.82,196.22l-84.6,48.83c-4.05,2.34-10.19,2.59-13.71.56L70.27,173.88a4.59,4.59,0,0,1-2.19-2.39c-.55,1.66.15,3.35,2.19,4.52l124.24,71.73c3.52,2,9.66,1.78,13.71-.57l84.6-48.82c2.73-1.58,3.82-3.7,3.17-5.53A6.62,6.62,0,0,1,292.82,196.22Z"/><path class="cls-11" d="M123.11,152.26,117.49,149c-.45-.26-.4-.72.12-1l6.64-3.83a2,2,0,0,1,1.76-.07l5.62,3.24c.45.26.4.72-.12,1l-6.64,3.83A2,2,0,0,1,123.11,152.26Z"/><path class="cls-11" d="M131.79,157.27,126.17,154c-.45-.26-.4-.72.13-1l6.63-3.83a2,2,0,0,1,1.76-.07l5.62,3.24c.46.26.4.72-.12,1l-6.64,3.83A1.93,1.93,0,0,1,131.79,157.27Z"/><path class="cls-11" d="M140.47,162.29,134.85,159c-.45-.26-.39-.71.13-1l6.63-3.83a2,2,0,0,1,1.76-.07l5.63,3.25c.45.26.39.71-.13,1l-6.64,3.83A2,2,0,0,1,140.47,162.29Z"/><path class="cls-11" d="M152.48,158.15l-5.62-3.25c-.45-.26-.4-.71.12-1l5.57-3.22a2,2,0,0,1,1.77-.07l5.62,3.24c.45.26.39.72-.13,1l-5.57,3.21A1.93,1.93,0,0,1,152.48,158.15Z"/><path class="cls-11" d="M161.16,163.16l-5.62-3.25c-.45-.26-.4-.71.13-1l5.57-3.22a2,2,0,0,1,1.76-.07l5.62,3.24c.45.26.39.72-.13,1l-5.57,3.22A2,2,0,0,1,161.16,163.16Z"/><path class="cls-11" d="M169.84,168.17l-5.62-3.24c-.45-.26-.39-.72.13-1l5.57-3.22a2,2,0,0,1,1.76-.07l5.62,3.25c.45.26.39.71-.13,1l-5.57,3.22A2,2,0,0,1,169.84,168.17Z"/><path class="cls-11" d="M178.52,173.18l-5.62-3.24c-.45-.26-.39-.72.13-1l5.57-3.21a2,2,0,0,1,1.76-.08l5.62,3.25c.45.26.4.71-.13,1l-5.57,3.21A2,2,0,0,1,178.52,173.18Z"/><path class="cls-11" d="M187.2,178.2,181.58,175c-.45-.26-.39-.71.13-1l5.57-3.21a1.93,1.93,0,0,1,1.76-.07l5.62,3.24c.45.26.4.72-.12,1L189,178.12A2,2,0,0,1,187.2,178.2Z"/><path class="cls-11" d="M195.89,183.21,190.26,180c-.45-.26-.39-.71.13-1l5.57-3.22a2,2,0,0,1,1.76-.07l5.62,3.24c.45.26.4.72-.12,1l-5.57,3.22A2,2,0,0,1,195.89,183.21Z"/><path class="cls-11" d="M204.57,188.22,199,185c-.46-.27-.4-.72.12-1l5.57-3.22a2,2,0,0,1,1.76-.07l5.62,3.25c.46.26.4.71-.12,1l-5.57,3.22A2,2,0,0,1,204.57,188.22Z"/><path class="cls-11" d="M213.25,193.23,207.63,190c-.45-.26-.4-.72.12-1l5.57-3.22a2,2,0,0,1,1.76-.07l5.63,3.25c.45.26.39.71-.13,1L215,193.16A2,2,0,0,1,213.25,193.23Z"/><path class="cls-11" d="M221.93,198.25,216.31,195c-.45-.26-.4-.72.12-1l5.57-3.21a2,2,0,0,1,1.77-.08l5.62,3.25c.45.26.39.72-.13,1l-5.57,3.21A2,2,0,0,1,221.93,198.25Z"/><path class="cls-11" d="M230.61,203.26,225,200c-.45-.26-.39-.71.13-1l5.57-3.22a2,2,0,0,1,1.76-.07l5.62,3.24c.45.26.39.72-.13,1l-5.57,3.21A1.93,1.93,0,0,1,230.61,203.26Z"/><path class="cls-11" d="M165.27,155.77l-5.62-3.24c-.45-.26-.4-.72.13-1l5.57-3.21a2,2,0,0,1,1.76-.08l5.62,3.25c.45.26.39.72-.13,1L167,155.7A1.93,1.93,0,0,1,165.27,155.77Z"/><path class="cls-11" d="M156.46,150.69l-5.62-3.25c-.45-.26-.4-.71.12-1l5.57-3.22a2,2,0,0,1,1.77-.07l5.62,3.24c.45.26.39.72-.13,1l-5.57,3.21A1.93,1.93,0,0,1,156.46,150.69Z"/><path class="cls-11" d="M147.63,145.59l-12.1-7c-.45-.26-.4-.71.12-1l5.57-3.22a2,2,0,0,1,1.76-.07l12.11,7c.45.26.4.71-.12,1l-5.57,3.22A2,2,0,0,1,147.63,145.59Z"/><path class="cls-11" d="M153.8,139.4,144,133.72c-.45-.26-.4-.71.12-1l5.57-3.22a2,2,0,0,1,1.77-.07l9.82,5.67c.45.26.4.72-.13,1l-5.57,3.21A2,2,0,0,1,153.8,139.4Z"/><path class="cls-11" d="M174,160.79l-5.62-3.25c-.45-.26-.39-.71.13-1l5.57-3.21a2,2,0,0,1,1.76-.07l5.62,3.24c.45.26.39.72-.13,1l-5.57,3.21A2,2,0,0,1,174,160.79Z"/><path class="cls-11" d="M182.63,165.8,177,162.55c-.45-.26-.39-.71.13-1l5.57-3.22a2,2,0,0,1,1.76-.07l5.62,3.24c.45.26.4.72-.13,1l-5.57,3.22A2,2,0,0,1,182.63,165.8Z"/><path class="cls-11" d="M191.31,170.81l-5.62-3.24c-.45-.26-.39-.72.13-1l5.57-3.22a2,2,0,0,1,1.76-.07l5.62,3.25c.45.26.4.71-.12,1l-5.57,3.22A2,2,0,0,1,191.31,170.81Z"/><path class="cls-11" d="M200,175.82l-5.63-3.24c-.45-.26-.39-.72.13-1l5.57-3.21a1.93,1.93,0,0,1,1.76-.08l5.62,3.25c.45.26.4.71-.12,1l-5.57,3.22A2,2,0,0,1,200,175.82Z"/><path class="cls-11" d="M208.68,180.84l-5.62-3.25c-.46-.26-.4-.72.12-1l5.57-3.21a2,2,0,0,1,1.76-.08l5.62,3.25c.46.26.4.72-.12,1l-5.57,3.21A2,2,0,0,1,208.68,180.84Z"/><path class="cls-11" d="M217.36,185.85l-5.62-3.25c-.45-.26-.4-.71.12-1l5.57-3.22a2,2,0,0,1,1.76-.07l5.63,3.24c.45.26.39.72-.13,1l-5.57,3.21A1.93,1.93,0,0,1,217.36,185.85Z"/><path class="cls-11" d="M226,190.86l-5.62-3.25c-.45-.26-.4-.71.13-1l5.57-3.22a2,2,0,0,1,1.76-.07l5.62,3.24c.45.27.39.72-.13,1l-5.57,3.22A2,2,0,0,1,226,190.86Z"/><path class="cls-11" d="M234.72,195.87l-5.62-3.24c-.45-.26-.39-.72.13-1l5.57-3.22a2,2,0,0,1,1.76-.07l5.62,3.25c.45.26.39.71-.13,1l-5.57,3.22A2,2,0,0,1,234.72,195.87Z"/><path class="cls-11" d="M243.4,200.88l-5.62-3.24c-.45-.26-.39-.72.13-1l5.57-3.21a2,2,0,0,1,1.76-.08l5.62,3.25c.45.26.4.71-.13,1l-5.57,3.21A2,2,0,0,1,243.4,200.88Z"/><path class="cls-11" d="M258.84,209.79l-12.27-7.08c-.45-.26-.39-.71.13-1l5.57-3.22a2,2,0,0,1,1.76-.07l12.26,7.08c.46.26.4.72-.12,1l-5.57,3.21A1.93,1.93,0,0,1,258.84,209.79Z"/><path class="cls-11" d="M275.74,200l-10.35-6c-.46-.26-.4-.72.12-1l5.57-3.21a2,2,0,0,1,1.76-.08l10.36,6c.45.26.39.72-.13,1L277.5,200A2,2,0,0,1,275.74,200Z"/><path class="cls-11" d="M189.16,159.81l-5.63-3.25c-.45-.26-.39-.72.13-1l5.57-3.21a1.93,1.93,0,0,1,1.76-.07l5.62,3.24c.45.26.4.72-.12,1l-5.57,3.21A2,2,0,0,1,189.16,159.81Z"/><path class="cls-11" d="M180.26,154.67l-5.62-3.25c-.46-.26-.4-.71.12-1l5.57-3.22a2,2,0,0,1,1.76-.07l5.63,3.24c.45.26.39.72-.13,1L182,154.6A2,2,0,0,1,180.26,154.67Z"/><path class="cls-11" d="M171.36,149.53l-5.62-3.24c-.45-.26-.4-.72.13-1l5.57-3.22a2,2,0,0,1,1.76-.07l5.62,3.25c.45.26.39.71-.13,1l-5.57,3.22A2,2,0,0,1,171.36,149.53Z"/><path class="cls-11" d="M162.46,144.4l-5.62-3.25c-.45-.26-.39-.72.13-1l5.57-3.21a2,2,0,0,1,1.76-.08l5.62,3.25c.45.26.4.72-.13,1l-5.57,3.21A2,2,0,0,1,162.46,144.4Z"/><path class="cls-11" d="M197.84,164.82l-5.63-3.25c-.45-.26-.39-.71.13-1l5.57-3.22a2,2,0,0,1,1.76-.07l5.62,3.24c.46.26.4.72-.12,1l-5.57,3.22A2,2,0,0,1,197.84,164.82Z"/><path class="cls-11" d="M206.52,169.83l-5.62-3.24c-.46-.27-.4-.72.12-1l5.57-3.22a2,2,0,0,1,1.76-.07l5.63,3.25c.45.26.39.71-.13,1l-5.57,3.22A2,2,0,0,1,206.52,169.83Z"/><path class="cls-11" d="M215.2,174.84l-5.62-3.24c-.45-.26-.4-.72.12-1l5.57-3.22a2,2,0,0,1,1.76-.07l5.63,3.25c.45.26.39.71-.13,1L217,174.77A2,2,0,0,1,215.2,174.84Z"/><path class="cls-11" d="M223.88,179.85l-5.62-3.24c-.45-.26-.4-.72.13-1l5.57-3.21a2,2,0,0,1,1.76-.08l5.62,3.25c.45.26.39.72-.13,1l-5.57,3.21A1.93,1.93,0,0,1,223.88,179.85Z"/><path class="cls-11" d="M232.56,184.87l-5.62-3.25c-.45-.26-.39-.71.13-1l5.57-3.21a2,2,0,0,1,1.76-.07l5.62,3.24c.45.26.39.72-.13,1l-5.57,3.21A1.93,1.93,0,0,1,232.56,184.87Z"/><path class="cls-11" d="M241.24,189.88l-5.62-3.25c-.45-.26-.39-.71.13-1l5.57-3.22a2,2,0,0,1,1.76-.07l5.62,3.24c.45.26.4.72-.13,1L243,189.81A2,2,0,0,1,241.24,189.88Z"/><path class="cls-11" d="M249.92,194.89l-5.62-3.24c-.45-.26-.39-.72.13-1l5.57-3.22a2,2,0,0,1,1.76-.07l5.62,3.25c.45.26.4.71-.12,1l-5.57,3.22A2,2,0,0,1,249.92,194.89Z"/><path class="cls-11" d="M258.61,199.9,253,196.66c-.45-.26-.39-.72.13-1l5.57-3.21a1.93,1.93,0,0,1,1.76-.08l5.62,3.25c.45.26.4.71-.12,1l-5.57,3.22A2,2,0,0,1,258.61,199.9Z"/><path class="cls-11" d="M267.29,204.92l-5.62-3.25c-.46-.26-.4-.72.12-1l5.57-3.21a2,2,0,0,1,1.76-.08l5.62,3.25c.46.26.4.72-.12,1l-5.57,3.21A2,2,0,0,1,267.29,204.92Z"/><path class="cls-11" d="M184.58,147.41,179,144.16c-.45-.26-.39-.71.13-1l5.57-3.22a2,2,0,0,1,1.76-.07L192,143.1c.45.26.4.72-.13,1l-5.57,3.22A2,2,0,0,1,184.58,147.41Z"/><path class="cls-11" d="M176,142.42l-5.63-3.24c-.45-.26-.39-.72.13-1l5.57-3.22a2,2,0,0,1,1.76-.07l5.62,3.25c.45.26.4.71-.12,1l-5.57,3.22A2,2,0,0,1,176,142.42Z"/><path class="cls-11" d="M167.31,137.43l-5.62-3.24c-.46-.26-.4-.72.12-1l5.57-3.21a2,2,0,0,1,1.76-.08l5.62,3.25c.46.26.4.71-.12,1l-5.57,3.21A1.93,1.93,0,0,1,167.31,137.43Z"/><path class="cls-11" d="M158.67,132.45l-5.62-3.25c-.45-.26-.4-.71.12-1l5.57-3.21a2,2,0,0,1,1.77-.07l5.62,3.24c.45.26.39.72-.13,1l-5.57,3.21A1.93,1.93,0,0,1,158.67,132.45Z"/><path class="cls-11" d="M167.55,127.32l-5.62-3.25c-.45-.26-.39-.71.13-1L163.9,122a2,2,0,0,1,1.76-.07l5.62,3.25c.45.26.4.71-.13,1l-1.84,1.07A2,2,0,0,1,167.55,127.32Z"/><path class="cls-11" d="M178.82,133.83l-5.62-3.25c-.45-.26-.39-.71.13-1l1.84-1.06a2,2,0,0,1,1.76-.07l5.62,3.24c.45.27.4.72-.12,1l-1.84,1.06A2,2,0,0,1,178.82,133.83Z"/><path class="cls-11" d="M187.43,138.79l-5.62-3.24c-.46-.26-.4-.72.12-1l1.84-1.06a1.93,1.93,0,0,1,1.76-.07l5.63,3.24c.45.26.39.72-.13,1l-1.84,1.06A2,2,0,0,1,187.43,138.79Z"/><path class="cls-11" d="M196,143.76l-5.62-3.25c-.45-.26-.4-.71.12-1l1.85-1.07a2,2,0,0,1,1.76-.07l5.62,3.25c.45.26.39.71-.13,1l-1.84,1.07A2,2,0,0,1,196,143.76Z"/><path class="cls-11" d="M204.63,148.73,199,145.48c-.45-.26-.4-.71.13-1L201,143.4a2,2,0,0,1,1.76-.07l5.62,3.24c.45.26.39.72-.13,1l-1.84,1.06A2,2,0,0,1,204.63,148.73Z"/><path class="cls-11" d="M252.66,176.45,247,173.21c-.45-.26-.39-.72.13-1l1.84-1.06a1.93,1.93,0,0,1,1.76-.07l5.62,3.24c.46.26.4.72-.12,1l-1.84,1.06A2,2,0,0,1,252.66,176.45Z"/><path class="cls-11" d="M261.26,181.42l-5.62-3.25c-.45-.26-.4-.71.12-1l1.84-1.07a2,2,0,0,1,1.77-.07l5.62,3.25c.45.26.39.71-.13,1L263,181.35A2,2,0,0,1,261.26,181.42Z"/><path class="cls-11" d="M269.86,186.39l-5.62-3.25c-.45-.26-.4-.71.12-1l1.85-1.06A2,2,0,0,1,268,181l5.62,3.24c.45.26.39.72-.13,1l-1.84,1.06A2,2,0,0,1,269.86,186.39Z"/><path class="cls-11" d="M278.46,191.35l-5.62-3.24c-.45-.26-.39-.72.13-1l1.84-1.06a2,2,0,0,1,1.76-.08l5.62,3.25c.45.26.4.72-.13,1l-1.84,1.06A2,2,0,0,1,278.46,191.35Z"/><path class="cls-11" d="M193.27,152.42l-5.63-3.24c-.45-.27-.39-.72.13-1l5.57-3.22a2,2,0,0,1,1.76-.07l5.62,3.25c.45.26.4.71-.12,1L195,152.35A2,2,0,0,1,193.27,152.42Z"/><path class="cls-11" d="M202,157.43l-5.63-3.24c-.45-.26-.39-.72.13-1L202,150a1.93,1.93,0,0,1,1.76-.08l5.62,3.25c.46.26.4.71-.12,1l-5.57,3.22A2,2,0,0,1,202,157.43Z"/><path class="cls-11" d="M210.63,162.45,205,159.2c-.46-.26-.4-.72.12-1L210.7,155a2,2,0,0,1,1.76-.08l5.63,3.25c.45.26.39.72-.13,1l-5.57,3.21A2,2,0,0,1,210.63,162.45Z"/><path class="cls-11" d="M219.31,167.46l-5.62-3.25c-.45-.26-.4-.71.12-1l5.57-3.22a2,2,0,0,1,1.76-.07l5.63,3.24c.45.26.39.72-.13,1l-5.57,3.21A1.93,1.93,0,0,1,219.31,167.46Z"/><path class="cls-11" d="M228,172.47l-5.62-3.25c-.45-.26-.4-.71.13-1l5.57-3.22a2,2,0,0,1,1.76-.07l5.62,3.24c.45.26.39.72-.13,1l-5.57,3.22A2,2,0,0,1,228,172.47Z"/><path class="cls-11" d="M236.67,177.48l-5.62-3.24c-.45-.26-.39-.72.13-1l5.57-3.22a2,2,0,0,1,1.76-.07l5.62,3.25c.45.26.39.71-.13,1l-5.57,3.22A2,2,0,0,1,236.67,177.48Z"/><path class="cls-11" d="M245.35,182.49l-5.62-3.24c-.45-.26-.39-.72.13-1l5.57-3.21a2,2,0,0,1,1.76-.08l5.62,3.25c.45.26.4.71-.13,1l-5.57,3.21A2,2,0,0,1,245.35,182.49Z"/><path class="cls-11" d="M254,187.51l-5.62-3.25c-.45-.26-.39-.71.13-1l5.57-3.21a1.93,1.93,0,0,1,1.76-.07l5.62,3.24c.45.26.4.72-.12,1l-5.57,3.21A2,2,0,0,1,254,187.51Z"/><path class="cls-11" d="M262.72,192.52l-5.63-3.25c-.45-.26-.39-.71.13-1l5.57-3.22a2,2,0,0,1,1.76-.07l5.62,3.24c.45.26.4.72-.12,1l-5.57,3.22A2,2,0,0,1,262.72,192.52Z"/><path class="cls-11" d="M143.63,153l-16.55-9.56c-.46-.26-.4-.71.12-1l5.57-3.21a2,2,0,0,1,1.76-.07l16.56,9.55c.45.27.39.72-.13,1L145.39,153A2,2,0,0,1,143.63,153Z"/><path class="cls-11" d="M250.28,214.62l-16.55-9.56c-.45-.26-.4-.72.13-1l5.57-3.22a2,2,0,0,1,1.76-.07l16.55,9.56c.45.26.4.72-.12,1l-5.57,3.21A2,2,0,0,1,250.28,214.62Z"/><path class="cls-11" d="M215.57,205.64,210,202.4c-.46-.26-.4-.72.12-1l6.64-3.83a2,2,0,0,1,1.76-.07l5.62,3.24c.45.26.39.72-.13,1l-6.63,3.83A2,2,0,0,1,215.57,205.64Z"/><path class="cls-11" d="M152.52,169.24l-9-5.19c-.45-.26-.39-.71.13-1l6.63-3.83a2,2,0,0,1,1.77-.08l9,5.19c.45.26.39.72-.13,1l-6.64,3.83A2,2,0,0,1,152.52,169.24Z"/><path class="cls-11" d="M207.2,200.81l-9-5.19c-.45-.26-.39-.71.13-1l6.63-3.83a1.93,1.93,0,0,1,1.76-.08l9,5.19c.45.26.39.72-.13,1L209,200.74A2,2,0,0,1,207.2,200.81Z"/><path class="cls-11" d="M165.05,176.48l-9-5.19c-.45-.27-.4-.72.12-1l6.64-3.83a2,2,0,0,1,1.76-.08l9,5.2c.45.26.4.71-.13,1l-6.63,3.83A2,2,0,0,1,165.05,176.48Z"/><path class="cls-11" d="M164.64,166.4,203.73,189a.53.53,0,0,1,0,1L197,193.89a1.93,1.93,0,0,1-1.75,0l-39.09-22.57Z"/><path class="cls-11" d="M239.83,214.73l6.26,3.62c.37.21.33.58-.1.83l-2.72,1.57a1.63,1.63,0,0,1-1.44.06l-6.26-3.62c-.37-.21-.33-.59.1-.83l2.72-1.57A1.6,1.6,0,0,1,239.83,214.73Z"/><path class="cls-11" d="M231.08,209.68l6.26,3.61c.37.22.32.59-.11.84l-2.71,1.56a1.57,1.57,0,0,1-1.44.06l-6.26-3.61c-.37-.22-.33-.59.1-.84l2.71-1.56A1.59,1.59,0,0,1,231.08,209.68Z"/><path class="cls-11" d="M222.4,204.66l6.26,3.62c.37.21.32.59-.11.83l-2.71,1.57a1.6,1.6,0,0,1-1.44.06l-6.27-3.62c-.37-.21-.32-.58.11-.83l2.71-1.57A1.65,1.65,0,0,1,222.4,204.66Z"/><path class="cls-11" d="M235.87,206.91l6.26,3.61c.37.22.33.59-.1.84l-2.72,1.56a1.57,1.57,0,0,1-1.44.06l-6.26-3.61c-.37-.21-.32-.59.1-.83l2.72-1.57A1.6,1.6,0,0,1,235.87,206.91Z"/><polygon class="cls-10" points="218.42 55.59 204.3 47.44 204.9 44.4 219.02 52.55 218.42 55.59"/><polygon class="cls-2" points="216.89 62.65 202.77 54.5 203.37 51.46 217.49 59.61 216.89 62.65"/><polygon class="cls-10" points="286.19 160.65 272.07 152.49 272.67 149.45 286.79 157.6 286.19 160.65"/><polygon class="cls-10" points="213.82 76.78 199.71 68.63 200.31 65.59 214.43 73.74 213.82 76.78"/><polygon class="cls-10" points="274 116.52 221.76 86.36 222.44 82.97 274.67 113.12 274 116.52"/><polygon class="cls-10" points="255.29 122.25 218.83 101.2 219.5 97.8 255.96 118.85 255.29 122.25"/><polygon class="cls-2" points="251.84 111.99 220.3 93.78 220.97 90.38 252.51 108.59 251.84 111.99"/><path class="cls-18" d="M245.14,82.85a2,2,0,0,1-2.83.88,2.48,2.48,0,0,1-1-3.1,2,2,0,0,1,2.84-.87A2.45,2.45,0,0,1,245.14,82.85Z"/><path class="cls-2" d="M251.94,86.78a2,2,0,0,1-2.84.87,2.46,2.46,0,0,1-1-3.1,2,2,0,0,1,2.83-.87A2.47,2.47,0,0,1,251.94,86.78Z"/><path class="cls-10" d="M258.73,90.7a2,2,0,0,1-2.83.87,2.46,2.46,0,0,1-1-3.09,2,2,0,0,1,2.84-.88A2.48,2.48,0,0,1,258.73,90.7Z"/><path class="cls-18" d="M265.52,94.62a2,2,0,0,1-2.83.87,2.47,2.47,0,0,1-1-3.09,2,2,0,0,1,2.84-.88A2.47,2.47,0,0,1,265.52,94.62Z"/><polygon class="cls-18" points="272.53 123.94 256.76 114.83 257.43 111.44 273.2 120.54 272.53 123.94"/><path class="cls-2" d="M164.73,216.11l-41.15-23.76c-1-.58-.88-1.59.28-2.26l21.7-12.53a4.36,4.36,0,0,1,3.92-.17l41.16,23.76c1,.59.88,1.6-.28,2.27L168.66,216A4.38,4.38,0,0,1,164.73,216.11Z"/><polygon class="cls-19" points="196.95 238.55 85.46 174.26 117.95 155.5 229.43 219.79 196.95 238.55"/><path class="cls-2" d="M197,223.75a1.73,1.73,0,0,1-.86-.23L84.61,159.23a1.71,1.71,0,0,1,0-3l32.48-18.76a1.71,1.71,0,0,1,1.72,0l111.48,64.29a1.71,1.71,0,0,1,.86,1.49,1.69,1.69,0,0,1-.86,1.48L197.8,223.52A1.72,1.72,0,0,1,197,223.75Zm-108-66,108,62.31L226,203.28,118,141Z"/><path class="cls-8" d="M137.47,170.94a1.37,1.37,0,0,1-1.37-1.38V126a1.38,1.38,0,1,1,2.75,0v43.52A1.38,1.38,0,0,1,137.47,170.94Z"/><path class="cls-20" d="M130.66,121.11v29.4h0a3.39,3.39,0,0,0,2,2.78,10.61,10.61,0,0,0,9.63,0,3.39,3.39,0,0,0,2-2.78v-29.4Z"/><path class="cls-8" d="M130.66,126v10a17.7,17.7,0,0,0,13.63,0V126A17.61,17.61,0,0,0,130.66,126Z"/><path class="cls-21" d="M148.51,80.14H126.44v46.11h0c0,1.63,1.07,3.26,3.23,4.5a17.24,17.24,0,0,0,15.61,0c2.15-1.24,3.23-2.87,3.23-4.5h0Z"/><path class="cls-10" d="M135.56,146c0,1.35-.95,1.9-2.12,1.22a4.68,4.68,0,0,1-2.12-3.67c0-1.35,1-1.9,2.12-1.22A4.68,4.68,0,0,1,135.56,146Z"/><path class="cls-8" d="M180.28,195.68a1.38,1.38,0,0,1-1.38-1.38V150.79a1.38,1.38,0,0,1,2.76,0V194.3A1.38,1.38,0,0,1,180.28,195.68Z"/><path class="cls-22" d="M173.47,145.85v29.4h0a3.36,3.36,0,0,0,2,2.78,10.63,10.63,0,0,0,9.64,0,3.36,3.36,0,0,0,2-2.78v-29.4Z"/><path class="cls-8" d="M173.47,150.69v9.95a17.58,17.58,0,0,0,13.62,0v-9.95A17.58,17.58,0,0,0,173.47,150.69Z"/><path class="cls-23" d="M191.32,104.88H169.24V151h0c0,1.63,1.08,3.26,3.24,4.51a17.24,17.24,0,0,0,15.61,0c2.15-1.25,3.23-2.88,3.23-4.51h0Z"/><path class="cls-10" d="M178.37,170.78c0,1.36-1,1.9-2.12,1.23a4.7,4.7,0,0,1-2.12-3.68c0-1.35,1-1.9,2.12-1.22A4.69,4.69,0,0,1,178.37,170.78Z"/><path class="cls-11" d="M95.16,46.76,124.47,29.9s-1.1,16.83-1.1,16.86S106.53,52,106.53,52Z"/><path class="cls-24" d="M252.14,143.8c0-11.83-8.3-26.22-18.55-32.14a18.4,18.4,0,0,0-6.34-2.35c-3-15.53-13.76-32-26.64-39.45a26,26,0,0,0-10.91-3.69C187.94,47.34,174.86,26,159,16.78c-8.3-4.79-15.84-5.36-21.39-2.42v0l-.27.16-.42.24-17.28,10.2,5.74,4.54c-5.16,2.25-8.41,8-8.41,16.58,0,15.76,11.06,34.92,24.71,42.8L225.89,149l2.6,17.53,18.2-10.72.05,0,.11-.06h0C250.12,153.75,252.14,149.63,252.14,143.8Z"/><path class="cls-11" d="M117.79,39.12,157.45,16c-7.7-4-14.66-4.35-19.87-1.59v0l-.27.16-.42.24-17.28,10.2,5.74,4.54C121.74,31.05,119.07,34.36,117.79,39.12Z"/><path class="cls-11" d="M191,107.29l28.94-17c-5-8.59-11.8-16.09-19.36-20.45-1-.58-2-1.09-3-1.53l-36.8,21.53Z"/><path class="cls-10" d="M127.76,26.84l12.9,7.45,23.61-13.91a47.16,47.16,0,0,0-5.3-3.6,33.3,33.3,0,0,0-8.26-3.47Z"/><path class="cls-10" d="M216.78,85.31l-23.1,13.61,8,9,21-12.38A68,68,0,0,0,216.78,85.31Z"/><path class="cls-25" d="M215.45,122.35a18.4,18.4,0,0,0-6.34-2.35c-3-15.53-13.76-32-26.65-39.46a26.06,26.06,0,0,0-10.9-3.69C169.8,58,156.72,36.64,140.82,27.47c-17.09-9.87-30.94-1.87-30.94,17.86,0,.67,0,1.35.05,2-12.5-5.79-22.26.74-22.26,15.54,0,15.76,11.06,34.92,24.71,42.8L215.45,165.2c10.24,5.91,18.55,1.12,18.55-10.71S225.69,128.26,215.45,122.35Z"/><path class="cls-2" d="M109.93,47.35c0-.67-.05-1.35-.05-2v-.08C103,42.56,97,43.73,93.32,48,97.37,44.71,103.25,44.26,109.93,47.35Z"/><path class="cls-2" d="M217,120.88a18.4,18.4,0,0,0-6.34-2.35c-3-15.53-13.76-32-26.65-39.46a26.06,26.06,0,0,0-10.9-3.69C171.31,56.56,158.23,35.17,142.33,26c-10.64-6.15-20-5.36-25.6.88,5.67-4.85,14.35-5,24.09.59,15.9,9.17,29,30.56,30.74,49.38a26.06,26.06,0,0,1,10.9,3.69C195.35,88,206.15,104.47,209.11,120a18.4,18.4,0,0,1,6.34,2.35c10.24,5.91,18.55,20.3,18.55,32.14,0,4.27-1.09,7.6-3,9.87,2.78-2.15,4.47-6,4.47-11.35C235.51,141.18,227.2,126.79,217,120.88Z"/><path class="cls-26" d="M107.75,52.05l7.75,3.6-.4-8.53c0-.6,0-1.2,0-1.79,0-7.61,2.3-13.13,6.47-15.55s10.11-1.63,16.7,2.17c14.19,8.19,26.56,28.13,28.17,45.38l.41,4.35,4.35.34a20.87,20.87,0,0,1,8.71,3c11.27,6.5,21.42,21.62,24.15,35.94l.68,3.58,3.6.56a13.64,13.64,0,0,1,4.56,1.72c8.65,5,16,17.66,16,27.65,0,3.74-1,6.49-2.84,7.53s-4.7.57-7.94-1.3L115,101.21c-12-6.93-22.12-24.47-22.12-38.32,0-5.43,1.6-9.57,4.39-11.35a7.47,7.47,0,0,1,4.11-1.1A15.57,15.57,0,0,1,107.75,52.05Z"/><polygon class="cls-11" points="159.19 116.65 161.91 115.29 159.23 113.26 159.19 116.65"/><polygon class="cls-11" points="151.03 79.92 153.66 78.59 153.71 79.97 151.03 79.92"/><polygon class="cls-11" points="166.95 108.07 169.7 106.68 164.4 101.64 166.95 108.07"/><path class="cls-11" d="M161.11,115.2l-12.87-7.58a2.78,2.78,0,0,1-1.18-2.17l.05-14.9,15.23,9,0,14.9C162.3,115.24,161.77,115.58,161.11,115.2Z"/><path class="cls-11" d="M153.64,78.6l-13.91,9c-.59.38-.11,1.8.79,2.32l14.2,8.37,14.19,8.36c.9.53,1.38-.32.8-1.4L155.9,79.94C155.31,78.85,154.24,78.22,153.64,78.6Z"/><path class="cls-10" d="M158.35,116.59,145.48,109a2.78,2.78,0,0,1-1.18-2.17l0-14.9,15.23,9,0,14.9C159.54,116.63,159,117,158.35,116.59Z"/><path class="cls-10" d="M150.88,80l-13.91,9c-.59.38-.11,1.8.79,2.32L152,99.63,166.15,108c.9.53,1.38-.32.8-1.4L153.14,81.33C152.55,80.24,151.48,79.61,150.88,80Z"/></g></g></svg>